<?xml version="1.0" standalone="no"?><!-- Generator: Gravit.io --><svg xmlns="http://www.w3.org/2000/svg" xmlns:xlink="http://www.w3.org/1999/xlink" style="isolation:isolate" viewBox="4377 2382 20 20" width="20" height="20"><g id="Page 1"><mask id="_mask_MbktHfJ3nHjgdleTX0llnIjC8tkcII7E"><path d=" M 4377 2382 L 4397 2382 L 4397 2402 L 4377 2402 L 4377 2382 Z " fill-rule="evenodd" fill="white" stroke="none"/></mask><path d=" M 4377 2382 L 4397 2382 L 4397 2402 L 4377 2402 L 4377 2382 Z " fill-rule="evenodd" fill="none" mask="url(#_mask_MbktHfJ3nHjgdleTX0llnIjC8tkcII7E)" vector-effect="non-scaling-stroke" stroke-width="0" stroke="rgb(0,0,0)" stroke-opacity="0.00784313771" stroke-linejoin="miter" stroke-linecap="square" stroke-miterlimit="10"/><path d=" M 4396.474 2391.474 Q 4396.474 2391.474 4387.526 2391.474 Q 4387.526 2382.526 4387.526 2382.526 C 4387.526 2382.236 4387.291 2382 4387 2382 C 4386.709 2382 4386.474 2382.236 4386.474 2382.526 Q 4386.474 2382.526 4386.474 2391.474 Q 4377.526 2391.474 4377.526 2391.474 C 4377.236 2391.474 4377 2391.709 4377 2392 C 4377 2392.291 4377.236 2392.526 4377.526 2392.526 Q 4377.526 2392.526 4386.474 2392.526 Q 4386.474 2401.474 4386.474 2401.474 C 4386.474 2401.764 4386.709 2402 4387 2402 C 4387.291 2402 4387.526 2401.764 4387.526 2401.474 Q 4387.526 2401.474 4387.526 2392.526 Q 4396.474 2392.526 4396.474 2392.526 C 4396.764 2392.526 4397 2392.291 4397 2392 C 4397 2391.709 4396.764 2391.474 4396.474 2391.474 Z " fill-rule="evenodd" fill="rgb(223,182,118)"/></g></svg>