<?xml version="1.0" standalone="no"?><!-- Generator: Gravit.io --><svg xmlns="http://www.w3.org/2000/svg" xmlns:xlink="http://www.w3.org/1999/xlink" style="isolation:isolate" viewBox="8222.319 2637.813 30.681 26.421" width="30.681" height="26.421"><g id="Group 9"><g id="Page 1"><path d=" M 8239.117 2652.547 C 8238.73 2652.547 8238.417 2652.844 8238.417 2653.208 C 8238.417 2653.208 8238.417 2654.53 8238.417 2654.53 C 8238.417 2654.896 8238.73 2655.192 8239.117 2655.192 C 8239.505 2655.192 8239.817 2654.896 8239.817 2654.53 C 8239.817 2654.53 8239.817 2653.208 8239.817 2653.208 C 8239.817 2652.844 8239.505 2652.547 8239.117 2652.547 M 8236.644 2662.871 Q 8235.441 2660.479 8235.441 2660.479 C 8240.33 2658.132 8244.334 2654.354 8246.823 2649.74 C 8246.823 2649.74 8249.357 2650.875 8249.357 2650.875 C 8246.591 2656.037 8242.114 2660.262 8236.644 2662.871 Q 8236.644 2662.871 8236.644 2662.871 Z  M 8232.092 2653.812 C 8232.327 2653.852 8232.568 2653.871 8232.812 2653.871 C 8235.13 2653.871 8237.017 2652.09 8237.017 2649.903 C 8237.017 2647.716 8235.13 2645.936 8232.812 2645.936 C 8231.708 2645.936 8230.666 2646.337 8229.874 2647.065 C 8229.584 2647.331 8229.342 2647.631 8229.147 2647.956 Q 8229.147 2647.956 8225.176 2640.054 L 8239.526 2646.475 Q 8239.524 2646.475 8239.524 2646.475 C 8238.852 2646.959 8238.417 2647.722 8238.417 2648.579 C 8238.417 2650.038 8239.674 2651.224 8241.22 2651.224 C 8242.766 2651.224 8244.022 2650.038 8244.022 2648.579 C 8244.022 2648.549 8244.02 2648.516 8244.014 2648.484 C 8244.014 2648.484 8245.557 2649.174 8245.557 2649.174 C 8243.208 2653.513 8239.439 2657.069 8234.841 2659.286 C 8234.841 2659.286 8232.092 2653.812 8232.092 2653.812 Z  M 8230.017 2649.688 C 8230.132 2648.314 8231.331 2647.258 8232.811 2647.258 C 8234.357 2647.258 8235.614 2648.444 8235.614 2649.902 C 8235.614 2651.359 8234.357 2652.547 8232.811 2652.547 C 8232.235 2652.547 8231.688 2652.385 8231.219 2652.08 C 8231.219 2652.08 8230.017 2649.688 8230.017 2649.688 Z  M 8241.22 2647.258 C 8241.236 2647.258 8241.253 2647.257 8241.27 2647.255 C 8241.27 2647.255 8242.267 2647.7 8242.267 2647.7 C 8242.496 2647.942 8242.622 2648.251 8242.622 2648.579 C 8242.622 2649.309 8241.992 2649.902 8241.22 2649.902 C 8240.448 2649.902 8239.818 2649.309 8239.818 2648.579 C 8239.818 2647.85 8240.447 2647.258 8241.22 2647.258 C 8241.22 2647.258 8241.22 2647.258 8241.22 2647.258 Z  M 8250.276 2650.155 Q 8250.278 2650.155 8250.278 2650.155 C 8250.216 2649.989 8250.087 2649.854 8249.919 2649.779 Q 8249.919 2649.779 8246.118 2648.078 L 8234.719 2642.977 Q 8223.32 2637.877 8223.32 2637.877 C 8223.053 2637.757 8222.734 2637.809 8222.524 2638.006 C 8222.314 2638.203 8222.259 2638.505 8222.387 2638.758 Q 8222.387 2638.758 8229.852 2653.615 L 8233.196 2660.271 Q 8234.998 2663.856 8234.998 2663.856 C 8235.079 2664.014 8235.22 2664.136 8235.396 2664.196 C 8235.472 2664.221 8235.551 2664.234 8235.631 2664.234 C 8235.71 2664.234 8235.838 2664.214 8235.933 2664.171 C 8237.964 2663.26 8239.871 2662.139 8241.623 2660.839 C 8245.269 2658.133 8248.241 2654.65 8250.25 2650.661 C 8250.33 2650.502 8250.34 2650.321 8250.276 2650.155 Q 8250.276 2650.155 8250.276 2650.155 Z  M 8230.708 2643.29 Q 8229.307 2643.29 8229.307 2643.29 C 8228.919 2643.29 8228.607 2643.587 8228.607 2643.951 C 8228.607 2644.315 8228.919 2644.613 8229.307 2644.613 C 8229.307 2644.613 8230.708 2644.613 8230.708 2644.613 C 8231.096 2644.613 8231.408 2644.316 8231.408 2643.951 C 8231.408 2643.585 8231.096 2643.29 8230.708 2643.29" fill-rule="evenodd" fill="rgb(27,206,103)"/></g><path d=" M 8223.789 2663.491 C 8223.574 2663.491 8223.359 2663.41 8223.203 2663.252 C 8223.047 2663.093 8222.255 2662.308 8222.578 2662.039 C 8222.578 2662.039 8250.999 2638.392 8250.999 2638.392 C 8251.322 2638.125 8252.504 2638.332 8252.796 2638.631 C 8253.088 2638.931 8253.062 2639.387 8252.739 2639.657 C 8252.739 2639.657 8224.318 2663.304 8224.318 2663.304 C 8224.168 2663.429 8223.978 2663.491 8223.789 2663.491" fill-rule="evenodd" fill="rgb(27,206,103)"/></g></svg>