<svg xmlns:xlink="http://www.w3.org/1999/xlink" width="45" height="48">
    <g fill="#9C6B1F">
        <path fill-rule="evenodd" d="M18.5 45.307c-1.515 0-2.75-1.21-2.75-2.694 0-1.485 1.235-2.694 2.75-2.694s2.75 1.21 2.75 2.694-1.235 2.694-2.75 2.694zm0-8.082c-3.033 0-5.5 2.416-5.5 5.388C13 45.584 15.467 48 18.5 48s5.5-2.416 5.5-5.387c0-2.972-2.467-5.388-5.5-5.388z"></path>
        <path fill-rule="evenodd" d="M37.5 45.307c-1.515 0-2.75-1.21-2.75-2.694 0-1.485 1.235-2.694 2.75-2.694 1.516 0 2.75 1.21 2.75 2.694s-1.234 2.694-2.75 2.694zm0-8.082c-3.033 0-5.5 2.416-5.5 5.388C32 45.584 34.467 48 37.5 48s5.5-2.416 5.5-5.387c0-2.972-2.467-5.388-5.5-5.388z"></path>
        <path fill-rule="evenodd" d="M40.456 20.081c-.141.854-1.043 1.7-1.896 1.776l-26.78 2.359L9.128 8.104H41.33c.312 0 .573.109.736.306.162.197.227.476.176.786l.002.003-1.789 10.882zm3.65-13.417l-.002.003c-.67-.803-1.68-1.262-2.77-1.262H8.685l-.264-1.61C8.072 1.667 6.13 0 4 0H1.333C.598 0 0 .606 0 1.352c0 .745.598 1.35 1.333 1.35H4c.819 0 1.656.72 1.79 1.538l4.456 27.096c.349 2.127 2.29 3.794 4.421 3.794h26.666c.737 0 1.334-.605 1.334-1.35 0-.747-.597-1.352-1.334-1.352H14.667c-.819 0-1.656-.718-1.79-1.537l-.658-4 26.573-2.343c2.067-.18 3.955-1.948 4.296-4.024l1.79-10.882c.178-1.091-.102-2.178-.771-2.978z"></path>
    </g>
</svg>