<svg xmlns="http://www.w3.org/2000/svg" data-name="Layer 2" viewBox="0 0 100 125" x="0px" y="0px"><title>etc 2</title><path d="M75.58,25.47V6.57H16.95V86.24h7.47v7.18H83.05V32.79Zm2.3,6.45H64.5V18.83ZM24.41,83.24H19.95V9.57H72.58v13l-9-8.77H24.41V83.24Zm55.64,7.18H27.41V16.76H61.5V34.92H80.05V90.43Z"/><rect x="33.14" y="41.62" width="41.22" height="3"/><rect x="33.14" y="50.59" width="41.22" height="3"/><rect x="33.14" y="59.57" width="41.22" height="3"/><rect x="33.14" y="68.54" width="41.22" height="3"/><rect x="33.14" y="77.52" width="41.22" height="3"/><rect x="33.14" y="32.44" width="20.64" height="3"/><text x="0" y="115" fill="#000000" font-size="5px" font-weight="bold" font-family="'Helvetica Neue', Helvetica, Arial-Unicode, Arial, Sans-serif">Created by UNiCORN</text><text x="0" y="120" fill="#000000" font-size="5px" font-weight="bold" font-family="'Helvetica Neue', Helvetica, Arial-Unicode, Arial, Sans-serif">from the Noun Project</text></svg>