<?xml version="1.0" standalone="no"?><!-- Generator: Gravit.io --><svg xmlns="http://www.w3.org/2000/svg" xmlns:xlink="http://www.w3.org/1999/xlink" style="isolation:isolate" viewBox="8084.051 2648 29.948 27.891" width="29.948" height="27.891"><g id="Group 8"><g id="Page 1"><clipPath id="_clipPath_dh0hkduuHkT3r1om0Z4NKjvxVMI78foA"><path d=" M 8107.024 2675.892 L 8092 2675.892 L 8092 2648 L 8107.024 2648 L 8107.024 2675.892 Z " fill-rule="evenodd" fill="rgb(255,255,255)"/></clipPath><g clip-path="url(#_clipPath_dh0hkduuHkT3r1om0Z4NKjvxVMI78foA)"><path d=" M 8100.347 2660.581 C 8100.366 2659.806 8100.555 2658.442 8101.526 2657.344 C 8102.399 2656.357 8103.741 2655.784 8105.523 2655.628 C 8105.584 2660.95 8100.347 2660.581 8100.347 2660.581 C 8100.347 2660.581 8100.347 2660.581 8100.347 2660.581 Z  M 8100.35 2666.252 C 8100.373 2665.472 8100.565 2664.095 8101.536 2663.006 C 8102.408 2662.028 8103.746 2661.455 8105.52 2661.301 C 8105.493 2662.182 8105.286 2663.725 8104.259 2664.837 C 8103.392 2665.775 8102.077 2666.251 8100.35 2666.252 C 8100.35 2666.252 8100.35 2666.252 8100.35 2666.252 Z  M 8104.264 2670.535 C 8103.398 2671.478 8102.08 2671.955 8100.347 2671.957 C 8100.366 2671.182 8100.555 2669.818 8101.526 2668.72 C 8102.399 2667.733 8103.741 2667.159 8105.523 2667.004 C 8105.499 2667.88 8105.294 2669.413 8104.264 2670.535 C 8104.264 2670.535 8104.264 2670.535 8104.264 2670.535 Z  M 8099.696 2657.082 C 8098.517 2655.931 8097.933 2654.735 8097.96 2653.519 C 8097.995 2651.969 8099.011 2650.686 8099.65 2650.028 C 8100.79 2651.356 8101.318 2652.682 8101.222 2653.974 C 8101.116 2655.412 8100.248 2656.516 8099.696 2657.082 C 8099.696 2657.082 8099.696 2657.082 8099.696 2657.082 Z  M 8096.93 2665.986 C 8096.915 2665.982 8096.898 2665.98 8096.883 2665.976 C 8096.883 2665.976 8096.888 2665.971 8096.888 2665.971 C 8096.822 2665.951 8096.754 2665.915 8096.688 2665.89 C 8096.342 2665.745 8096.046 2665.599 8095.802 2665.458 C 8095.731 2665.416 8095.662 2665.38 8095.592 2665.333 C 8095.299 2665.148 8095.082 2664.975 8094.926 2664.826 C 8093.906 2663.714 8093.699 2662.178 8093.674 2661.301 C 8095.314 2661.443 8096.563 2661.961 8097.434 2662.81 C 8097.549 2662.922 8097.674 2663.064 8097.813 2663.236 C 8097.91 2663.362 8098.018 2663.527 8098.126 2663.715 C 8098.149 2663.759 8098.173 2663.799 8098.195 2663.844 C 8098.307 2664.053 8098.419 2664.285 8098.518 2664.558 C 8098.518 2664.558 8098.528 2664.551 8098.528 2664.551 C 8098.541 2664.588 8098.542 2664.621 8098.555 2664.656 C 8098.707 2665.108 8098.822 2665.635 8098.843 2666.252 C 8098.843 2666.252 8097.998 2666.326 8096.93 2665.986 C 8096.93 2665.986 8096.93 2665.986 8096.93 2665.986 Z  M 8094.934 2670.541 C 8094.851 2670.452 8094.786 2670.356 8094.712 2670.261 C 8094.712 2670.261 8094.707 2670.266 8094.707 2670.266 C 8094.707 2670.266 8094.68 2670.228 8094.642 2670.171 C 8094.275 2669.661 8094.043 2669.099 8093.901 2668.559 C 8093.901 2668.559 8093.914 2668.547 8093.914 2668.547 C 8093.79 2668.099 8093.706 2667.596 8093.734 2667.05 C 8093.734 2667.05 8094.413 2667.049 8095.32 2667.329 C 8095.32 2667.329 8095.322 2667.327 8095.322 2667.327 C 8095.33 2667.33 8095.334 2667.335 8095.342 2667.337 C 8095.509 2667.39 8095.685 2667.453 8095.864 2667.526 C 8095.915 2667.548 8095.982 2667.579 8096.058 2667.615 C 8096.083 2667.626 8096.11 2667.64 8096.136 2667.652 C 8096.742 2667.957 8097.854 2668.676 8098.443 2670.048 C 8098.453 2670.07 8098.461 2670.09 8098.469 2670.112 C 8098.563 2670.339 8098.634 2670.591 8098.694 2670.854 C 8098.784 2671.271 8098.835 2671.663 8098.843 2671.957 C 8097.115 2671.955 8095.8 2671.479 8094.934 2670.541 C 8094.934 2670.541 8094.934 2670.541 8094.934 2670.541 Z  M 8093.501 2655.63 C 8095.274 2655.784 8096.611 2656.356 8097.483 2657.334 C 8098.454 2658.424 8098.648 2659.8 8098.67 2660.581 C 8096.942 2660.579 8095.627 2660.103 8094.762 2659.167 C 8093.732 2658.053 8093.526 2656.508 8093.501 2655.63 C 8093.501 2655.63 8093.501 2655.63 8093.501 2655.63 Z  M 8106.917 2665.493 Q 8106.232 2665.507 8106.232 2665.507 C 8105.992 2665.514 8105.786 2665.556 8105.557 2665.573 C 8107.298 2663.457 8107.008 2660.579 8106.994 2660.453 Q 8106.994 2660.453 8106.917 2659.791 Q 8106.232 2659.805 8106.232 2659.805 C 8106.002 2659.809 8105.802 2659.851 8105.581 2659.867 C 8105.979 2659.375 8106.258 2658.846 8106.469 2658.319 C 8106.518 2658.197 8106.565 2658.076 8106.606 2657.955 C 8106.648 2657.834 8106.718 2657.607 8106.762 2657.436 C 8107.043 2656.321 8107.032 2655.275 8106.981 2654.665 Q 8106.981 2654.665 8106.917 2654.118 Q 8106.232 2654.133 8106.232 2654.133 C 8104.821 2654.163 8103.614 2654.419 8102.586 2654.863 C 8102.64 2654.615 8102.694 2654.366 8102.715 2654.099 C 8102.863 2652.196 8102.03 2650.306 8100.237 2648.48 Q 8100.237 2648.48 8099.763 2648 Q 8099.229 2648.413 8099.229 2648.413 C 8099.118 2648.499 8096.536 2650.532 8096.462 2653.475 C 8096.45 2653.984 8096.52 2654.485 8096.656 2654.978 C 8095.581 2654.468 8094.306 2654.164 8092.787 2654.133 Q 8092.787 2654.133 8092.102 2654.118 Q 8092.026 2654.78 8092.026 2654.78 C 8092.011 2654.905 8091.73 2657.739 8093.426 2659.85 C 8093.266 2659.84 8093.126 2659.809 8092.96 2659.805 Q 8092.96 2659.805 8092.277 2659.791 Q 8092.2 2660.453 8092.2 2660.453 C 8092.186 2660.579 8091.896 2663.457 8093.637 2665.573 C 8093.406 2665.556 8093.2 2665.514 8092.96 2665.507 Q 8092.96 2665.507 8092.277 2665.493 Q 8092.2 2666.156 8092.2 2666.156 C 8092.192 2666.218 8092.118 2666.966 8092.251 2667.954 C 8092.363 2668.687 8092.598 2669.525 8093.05 2670.41 C 8093.254 2670.788 8093.493 2671.16 8093.81 2671.506 C 8094.973 2672.773 8096.669 2673.413 8098.846 2673.414 Q 8098.846 2673.414 8098.846 2675.892 L 8100.346 2675.892 Q 8100.346 2673.414 8100.346 2673.414 C 8102.523 2673.413 8104.219 2672.772 8105.382 2671.506 C 8107.34 2669.375 8107.008 2666.287 8106.994 2666.156 Q 8106.994 2666.156 8106.917 2665.493 Z " fill-rule="evenodd" fill="rgb(224,143,88)"/></g></g><path d=" M 8084.789 2675 C 8084.575 2675 8084.36 2674.913 8084.204 2674.742 C 8084.047 2674.572 8083.937 2673.928 8084.26 2673.639 C 8084.26 2673.639 8112.682 2648.202 8112.682 2648.202 C 8113.004 2647.914 8113.504 2647.936 8113.796 2648.258 C 8114.088 2648.58 8114.063 2649.07 8113.739 2649.361 C 8113.739 2649.361 8085.318 2674.798 8085.318 2674.798 C 8085.168 2674.933 8084.979 2675 8084.789 2675" fill-rule="evenodd" fill="rgb(224,143,88)"/></g></svg>