<?xml version="1.0" encoding="UTF-8"?>
<svg width="152px" height="37px" viewBox="0 0 152 37" version="1.1" xmlns="http://www.w3.org/2000/svg" xmlns:xlink="http://www.w3.org/1999/xlink">
    <!-- Generator: Sketch 48.2 (47327) - http://www.bohemiancoding.com/sketch -->
    <title>logo</title>
    <desc>Created with Sketch.</desc>
    <defs>
        <polygon id="path-1" points="4.06575815e-20 0.6961 4.06575815e-20 20.6541 151.1738 20.6541 151.1738 0.6961 0 0.6961"></polygon>
    </defs>
    <g id="Dashboard-Expand-Order" stroke="none" stroke-width="1" fill="none" fill-rule="evenodd" transform="translate(-50.000000, -16.000000)">
        <g id="header" transform="translate(-118.000000, -1.000000)">
            <g id="logo" transform="translate(168.000000, 16.000000)">
                <g>
                    <g>
                        <g id="Group-6" transform="translate(0.000000, 9.975100)">
                            <g id="Group-3">
                                <mask id="mask-2" fill="white">
                                    <use xlink:href="#path-1"></use>
                                </mask>
                                <g id="Clip-2"></g>
                                <path d="M12.4678,1.2481 L12.4678,3.3491 L2.0898,3.3491 L2.0898,8.9731 L10.5898,8.9731 L10.5898,11.0631 L2.0898,11.0631 L2.0898,20.0911 L-0.0002,20.0911 L-0.0002,1.2481 L12.4678,1.2481 Z M20.9288,10.1591 L24.8848,10.1591 C25.9648,10.1591 26.8848,9.8261 27.6438,9.1611 C28.4108,8.4881 28.7948,7.6821 28.7948,6.7421 C28.7948,5.8031 28.4108,5.0011 27.6438,4.3361 C26.8848,3.6701 25.9648,3.3381 24.8848,3.3381 L20.9288,3.3381 L20.9288,10.1591 Z M23.3938,12.2481 L20.9288,12.2481 L20.9288,20.0911 L18.8388,20.0911 L18.8388,1.2481 L24.8848,1.2481 C26.5438,1.2481 27.9568,1.7841 29.1228,2.8561 C30.2968,3.9361 30.8838,5.2321 30.8838,6.7421 C30.8838,8.0971 30.4068,9.2861 29.4518,10.3111 C28.5048,11.3291 27.3148,11.9471 25.8828,12.1661 L30.9548,19.4451 L29.2408,20.6431 L23.3938,12.2481 Z M38.3118,20.0911 L40.4018,20.0911 L40.4018,1.2481 L38.3118,1.2481 L38.3118,20.0911 Z M59.9808,13.9511 C59.6518,12.6831 58.9078,11.6111 57.7498,10.7341 C57.2958,10.3901 56.7438,10.0491 56.0948,9.7131 C55.8358,9.5801 55.5468,9.4391 55.2258,9.2901 L54.7908,9.0901 L54.3568,8.8911 L53.6408,8.5621 C51.7778,7.7011 50.6348,6.8441 50.2128,5.9911 C50.0558,5.6861 49.9938,5.3811 50.0248,5.0751 C50.0408,4.9661 50.0678,4.8521 50.1068,4.7351 L50.1538,4.6061 L50.2008,4.4881 C50.4118,3.9801 50.7528,3.5841 51.2218,3.3031 C51.5818,3.0831 52.0008,2.9351 52.4788,2.8561 C53.2458,2.7231 54.0278,2.7821 54.8268,3.0321 C55.6328,3.2831 56.2668,3.6661 56.7288,4.1831 L58.2898,2.7861 C57.5778,2.0031 56.6538,1.4281 55.5188,1.0601 C54.3918,0.6921 53.2608,0.6061 52.1258,0.8021 C50.2398,1.1151 48.9568,2.0701 48.2758,3.6661 C47.1558,6.2961 48.6508,8.5581 52.7598,10.4521 C53.0888,10.6091 53.3318,10.7221 53.4878,10.7931 C54.8658,11.4111 55.8168,11.9081 56.3408,12.2841 C57.1938,12.8941 57.7338,13.6261 57.9608,14.4791 C58.1258,15.1211 58.1018,15.7201 57.8908,16.2751 C57.8358,16.4321 57.7618,16.5881 57.6678,16.7451 C57.1508,17.5821 56.3018,18.1341 55.1198,18.4001 C53.9298,18.6741 52.7678,18.6191 51.6328,18.2361 C50.4908,17.8601 49.5078,17.1991 48.6868,16.2521 L47.1018,17.6141 C48.8778,19.6411 51.0618,20.6541 53.6528,20.6541 C54.3018,20.6541 54.9478,20.5801 55.5898,20.4311 C57.3508,20.0321 58.6378,19.1631 59.4518,17.8251 C59.7568,17.3241 59.9648,16.8081 60.0738,16.2751 C60.0898,16.2051 60.1018,16.1311 60.1098,16.0521 C60.1638,15.7391 60.1838,15.4221 60.1678,15.1011 L60.1568,15.1011 C60.1408,14.7261 60.0818,14.3421 59.9808,13.9511 Z M82.7288,1.2481 L82.7288,20.0911 L80.6388,20.0911 L80.6388,10.8041 L69.1218,10.8041 L69.1218,20.0911 L67.0328,20.0911 L67.0328,1.2481 L69.1218,1.2481 L69.1218,8.7151 L80.6388,8.7151 L80.6388,1.2481 L82.7288,1.2481 Z M104.6908,1.2481 L104.6908,3.3491 L98.1048,3.3491 L98.1048,20.0911 L96.0148,20.0911 L96.0148,3.3491 L89.4288,3.3491 L89.4288,1.2481 L104.6908,1.2481 Z M144.0358,2.7741 C141.8058,2.7741 139.8998,3.5451 138.3178,5.0871 C136.7378,6.6371 135.9468,8.5001 135.9468,10.6751 C135.9468,12.8511 136.7378,14.7101 138.3178,16.2521 C139.8998,17.7941 141.8058,18.5651 144.0358,18.5651 C145.8438,18.5651 147.5268,18.0761 149.0838,17.0971 L149.0838,11.6501 L144.2238,11.6501 L144.2238,9.5601 L151.1738,9.5601 L151.1738,18.2011 L150.7278,18.5061 C149.4908,19.3591 148.2548,19.9541 147.0178,20.2901 C146.1258,20.5331 145.1318,20.6541 144.0358,20.6541 C142.6588,20.6541 141.3398,20.3921 140.0798,19.8681 C138.8588,19.3591 137.7778,18.6471 136.8388,17.7311 C135.8998,16.8081 135.1718,15.7471 134.6558,14.5501 C134.1238,13.3131 133.8578,12.0221 133.8578,10.6751 C133.8578,9.3211 134.1238,8.0261 134.6558,6.7891 C135.1718,5.6001 135.8998,4.5431 136.8388,3.6191 C138.8268,1.6711 141.2258,0.6961 144.0358,0.6961 C145.1318,0.6961 146.1258,0.8181 147.0178,1.0601 C148.2548,1.3891 149.4908,1.9801 150.7278,2.8331 L149.5298,4.5471 C147.8238,3.3651 145.9928,2.7741 144.0358,2.7741 Z" id="Fill-1" fill="#4E3C44" mask="url(#mask-2)"></path>
                            </g>
                            <path d="M112.4834,4.4883 C110.1534,4.6083 108.3044,6.3983 108.3044,8.5883 C108.3044,10.7783 110.1534,12.5683 112.4834,12.6883" id="Stroke-4" stroke="#6D5C62" stroke-width="1.428"></path>
                        </g>
                        <text id="C" font-family="LucidaGrande, Lucida Grande" font-size="3.4793" font-weight="normal" fill="#4E3C44">
                            <tspan x="113.2885" y="33.6453088">C</tspan>
                        </text>
                        <text id="O" font-family="LucidaGrande, Lucida Grande" font-size="4.412" font-weight="normal" fill="#4E3C44">
                            <tspan x="118.208" y="34.3871359">O</tspan>
                        </text>
                        <text id="M" font-family="LucidaGrande, Lucida Grande" font-size="5.2473" font-weight="normal" fill="#4E3C44">
                            <tspan x="124.0096" y="34.0414744">M</tspan>
                        </text>
                        <g id="Group-25" transform="translate(0.000000, 0.975100)">
                            <path d="M111.0762,32.1211 C111.5422,32.2701 112.0382,32.0141 112.1872,31.5501 C112.3372,31.0851 112.0812,30.5881 111.6162,30.4391 C111.1512,30.2901 110.6542,30.5451 110.5062,31.0101 C110.3562,31.4741 110.6112,31.9721 111.0762,32.1211" id="Fill-7" fill="#4E3C44"></path>
                            <path d="M114.3193,10.1856 L114.3193,21.8666 C114.3193,23.4166 114.8833,24.7436 116.0103,25.8466 C117.1303,26.9426 118.4833,27.4906 120.0733,27.4906 C121.6533,27.4906 123.0073,26.9426 124.1343,25.8466 C125.2543,24.7436 125.8133,23.4166 125.8133,21.8666 L125.8133,10.1856 L127.9153,10.1856 L127.9153,21.8666 C127.9153,23.9956 127.1473,25.8116 125.6143,27.3146 C124.0803,28.8246 122.2323,29.5806 120.0733,29.5806 C117.9123,29.5806 116.0643,28.8246 114.5313,27.3146 C112.9973,25.8116 112.2293,23.9956 112.2293,21.8666 L112.2293,10.1856 L114.3193,10.1856 Z" id="Fill-9" fill="#4E3C44"></path>
                            <path d="M120.0635,10.2481 C120.0555,10.2481 120.0465,10.2471 120.0385,10.2461 C118.3795,9.9611 118.1725,9.0581 118.1605,8.6831 C118.1305,7.7501 119.0135,6.8021 120.1715,6.5251 C120.6205,6.4181 121.0425,6.3371 121.4535,6.2581 C122.9335,5.9741 124.1025,5.7501 124.9135,4.5531 C125.3865,3.8561 125.4555,2.8371 125.0805,2.1291 C124.8155,1.6301 124.3635,1.3541 123.8075,1.3541 C123.7475,1.3541 123.6865,1.3571 123.6225,1.3641 C123.6175,1.3641 123.5965,1.3651 123.5915,1.3651 C123.4935,1.3651 123.4055,1.3161 123.3565,1.2351 C123.2995,1.1391 123.3025,1.0121 123.3645,0.8971 C123.6525,0.3671 124.3675,0.0251 125.1855,0.0251 C125.9145,0.0251 126.6095,0.2951 127.1395,0.7861 C127.6925,1.2981 128.2035,2.7491 127.7245,4.1421 C127.2955,5.3901 125.9495,6.9471 121.9755,7.2841 C120.7285,7.3891 119.1325,8.1111 119.0215,8.8481 C118.9495,9.3241 119.5835,9.6861 120.1275,9.9061 C120.2055,9.9371 120.2515,10.0201 120.2365,10.1041 C120.2205,10.1871 120.1475,10.2481 120.0635,10.2481" id="Fill-11" fill="#6D5C62"></path>
                            <path d="M117.9443,7.4458 C117.8803,7.4458 117.8193,7.4188 117.7783,7.3728 C117.7373,7.3268 117.7183,7.2658 117.7253,7.2018 C117.8793,5.8368 118.3633,5.1228 119.4543,4.6578 C119.7303,4.5378 120.0713,4.4448 120.4003,4.3548 C120.8063,4.2428 121.2263,4.1278 121.5353,3.9658 L121.5943,3.9338 C122.0683,3.6858 122.7853,3.3098 122.8883,2.5758 C122.8973,2.5078 122.9513,2.4528 123.0173,2.4398 C123.0273,2.4388 123.0383,2.4378 123.0483,2.4378 C123.1053,2.4378 123.1603,2.4678 123.1883,2.5188 C123.6303,3.3008 123.5253,3.8848 123.3603,4.2368 C123.1123,4.7658 122.5503,5.1578 121.8553,5.2828 C121.6863,5.3138 121.5153,5.3418 121.3433,5.3708 C119.9733,5.5968 118.6803,5.8108 118.1603,7.2948 C118.1293,7.3848 118.0433,7.4458 117.9443,7.4458" id="Fill-13" fill="#6D5C62"></path>
                            <path d="M113.6777,10.6221 L113.6777,22.3921 C113.6777,23.9771 114.3027,25.3351 115.5517,26.4641 C116.7917,27.5851 118.2937,28.1461 120.0557,28.1461 C121.8087,28.1461 123.3107,27.5851 124.5597,26.4641 C125.7997,25.3351 126.4207,23.9771 126.4207,22.3921 L126.4207,10.6221 C124.9707,11.0091 122.6667,11.2641 120.0487,11.2641 C117.4317,11.2641 115.1277,11.0091 113.6777,10.6221" id="Fill-15" fill="#DFB676"></path>
                            <path d="M120.0918,11.0215 C127.5988,11.0215 127.5988,10.6185 127.5988,10.2945 C127.5988,9.9705 127.5988,9.5675 120.0918,9.5675 C112.5838,9.5675 112.5838,9.9705 112.5838,10.2945 C112.5838,10.6185 112.5838,11.0215 120.0918,11.0215" id="Fill-17" fill="#DFB676"></path>
                            <path d="M120.0918,11.0215 C127.5988,11.0215 127.5988,10.6185 127.5988,10.2945 C127.5988,9.9705 127.5988,9.5675 120.0918,9.5675 C112.5838,9.5675 112.5838,9.9705 112.5838,10.2945 C112.5838,10.6185 112.5838,11.0215 120.0918,11.0215 Z" id="Stroke-19" stroke="#6D5C62" stroke-width="0.67"></path>
                            <path d="M2.043,32.856 L3.667,36.822 L3.279,37 L2.843,35.939 L0.826,35.939 L0.39,37 L0,36.822 L1.636,32.856 L2.043,32.856 Z M1.012,35.493 L2.662,35.493 L1.838,33.485 L1.012,35.493 Z M9.491,32.856 L9.491,33.305 L7.386,33.305 L7.386,34.505 L9.11,34.505 L9.11,34.952 L7.386,34.952 L7.386,36.879 L6.962,36.879 L6.962,32.856 L9.491,32.856 Z M11.207,34.759 L12.01,34.759 C12.229,34.759 12.415,34.688 12.569,34.546 C12.725,34.402 12.803,34.23 12.803,34.029 C12.803,33.829 12.725,33.657 12.569,33.515 C12.415,33.373 12.229,33.302 12.01,33.302 L11.207,33.302 L11.207,34.759 Z M11.707,35.205 L11.207,35.205 L11.207,36.879 L10.783,36.879 L10.783,32.856 L12.01,32.856 C12.346,32.856 12.633,32.971 12.869,33.199 C13.107,33.43 13.227,33.707 13.227,34.029 C13.227,34.318 13.13,34.572 12.936,34.791 C12.744,35.009 12.503,35.141 12.212,35.187 L13.341,36.879 L12.812,36.879 L11.707,35.205 Z M17.262,32.856 L17.262,33.305 L15.157,33.305 L15.157,34.393 L16.881,34.393 L16.881,34.841 L15.157,34.841 L15.157,36.433 L17.315,36.433 L17.315,36.879 L14.733,36.879 L14.733,32.856 L17.262,32.856 Z M21.213,35.568 C21.146,35.298 20.995,35.069 20.76,34.882 C20.668,34.808 20.556,34.735 20.424,34.663 C20.372,34.635 20.313,34.605 20.248,34.573 L20.16,34.531 L20.072,34.488 L19.927,34.418 C19.549,34.234 19.317,34.051 19.231,33.869 C19.199,33.804 19.187,33.738 19.193,33.673 C19.196,33.65 19.202,33.626 19.21,33.601 L19.219,33.573 L19.229,33.548 C19.272,33.439 19.341,33.355 19.436,33.295 C19.509,33.248 19.594,33.216 19.691,33.199 C19.846,33.171 20.005,33.184 20.167,33.237 C20.331,33.291 20.459,33.372 20.553,33.483 L20.87,33.184 C20.725,33.017 20.538,32.894 20.308,32.816 C20.079,32.737 19.849,32.719 19.619,32.761 C19.237,32.828 18.976,33.031 18.838,33.372 C18.611,33.934 18.914,34.417 19.748,34.821 C19.815,34.855 19.864,34.879 19.896,34.894 C20.175,35.026 20.368,35.132 20.474,35.212 C20.647,35.343 20.757,35.499 20.803,35.681 C20.836,35.818 20.831,35.946 20.789,36.066 C20.777,36.098 20.762,36.132 20.743,36.165 C20.639,36.344 20.466,36.462 20.227,36.518 C19.985,36.577 19.749,36.566 19.519,36.483 C19.287,36.403 19.088,36.262 18.922,36.06 L18.6,36.351 C18.96,36.783 19.403,37 19.929,37 C20.061,37 20.192,36.984 20.322,36.952 C20.679,36.867 20.94,36.681 21.105,36.396 C21.167,36.289 21.209,36.178 21.232,36.066 C21.235,36.05 21.237,36.034 21.239,36.017 C21.25,35.95 21.254,35.883 21.251,35.814 L21.248,35.814 C21.245,35.734 21.233,35.652 21.213,35.568 Z M25.827,32.856 L25.827,36.879 L25.403,36.879 L25.403,34.897 L23.067,34.897 L23.067,36.879 L22.643,36.879 L22.643,32.856 L23.067,32.856 L23.067,34.45 L25.403,34.45 L25.403,32.856 L25.827,32.856 Z M30.277,36.431 C30.737,36.431 31.131,36.278 31.46,35.972 C31.787,35.666 31.951,35.298 31.951,34.866 C31.951,34.435 31.787,34.067 31.46,33.761 C31.131,33.455 30.737,33.302 30.277,33.302 L29.545,33.302 L29.545,36.431 L30.277,36.431 Z M30.277,32.856 C30.854,32.856 31.349,33.052 31.76,33.445 C31.954,33.631 32.104,33.844 32.21,34.084 C32.32,34.333 32.375,34.594 32.375,34.866 C32.375,35.139 32.32,35.4 32.21,35.649 C32.104,35.889 31.954,36.102 31.76,36.288 C31.349,36.682 30.854,36.879 30.277,36.879 L29.122,36.879 L29.122,32.856 L30.277,32.856 Z M35.348,32.856 L36.996,36.879 L36.532,36.879 L36.148,35.939 L34.131,35.939 L33.746,36.879 L33.279,36.879 L34.941,32.856 L35.348,32.856 Z M34.317,35.493 L35.967,35.493 L35.144,33.485 L34.317,35.493 Z M40.949,32.859 L39.415,35.097 L39.415,36.879 L38.991,36.879 L38.991,35.11 L37.458,32.861 L37.986,32.859 L39.201,34.646 L40.418,32.859 L40.949,32.859 Z M46.856,35.568 C46.789,35.298 46.638,35.069 46.403,34.882 C46.311,34.808 46.199,34.735 46.067,34.663 C46.015,34.635 45.956,34.605 45.891,34.573 L45.803,34.531 L45.715,34.488 L45.57,34.418 C45.192,34.234 44.96,34.051 44.874,33.869 C44.843,33.804 44.83,33.738 44.836,33.673 C44.839,33.65 44.845,33.626 44.853,33.601 L44.862,33.573 L44.872,33.548 C44.915,33.439 44.984,33.355 45.079,33.295 C45.152,33.248 45.237,33.216 45.334,33.199 C45.49,33.171 45.648,33.184 45.81,33.237 C45.974,33.291 46.102,33.372 46.196,33.483 L46.513,33.184 C46.368,33.017 46.181,32.894 45.951,32.816 C45.722,32.737 45.493,32.719 45.263,32.761 C44.88,32.828 44.62,33.031 44.481,33.372 C44.254,33.934 44.558,34.417 45.391,34.821 C45.458,34.855 45.507,34.879 45.539,34.894 C45.818,35.026 46.011,35.132 46.117,35.212 C46.291,35.343 46.4,35.499 46.446,35.681 C46.479,35.818 46.475,35.946 46.432,36.066 C46.421,36.098 46.406,36.132 46.387,36.165 C46.282,36.344 46.11,36.462 45.87,36.518 C45.628,36.577 45.393,36.566 45.163,36.483 C44.931,36.403 44.731,36.262 44.565,36.06 L44.243,36.351 C44.604,36.783 45.047,37 45.572,37 C45.704,37 45.835,36.984 45.965,36.952 C46.322,36.867 46.583,36.681 46.749,36.396 C46.81,36.289 46.853,36.178 46.875,36.066 C46.878,36.05 46.88,36.034 46.882,36.017 C46.893,35.95 46.897,35.883 46.894,35.814 L46.891,35.814 C46.888,35.734 46.876,35.652 46.856,35.568 Z M51.149,32.856 L51.149,33.305 L49.813,33.305 L49.813,36.879 L49.389,36.879 L49.389,33.305 L48.053,33.305 L48.053,32.856 L51.149,32.856 Z M54.594,32.856 L56.242,36.879 L55.778,36.879 L55.394,35.939 L53.377,35.939 L52.991,36.879 L52.525,36.879 L54.187,32.856 L54.594,32.856 Z M53.563,35.493 L55.213,35.493 L54.389,33.485 L53.563,35.493 Z M57.923,34.759 L58.725,34.759 C58.944,34.759 59.131,34.688 59.285,34.546 C59.44,34.402 59.518,34.23 59.518,34.029 C59.518,33.829 59.44,33.657 59.285,33.515 C59.131,33.373 58.944,33.302 58.725,33.302 L57.923,33.302 L57.923,34.759 Z M58.423,35.205 L57.923,35.205 L57.923,36.879 L57.499,36.879 L57.499,32.856 L58.725,32.856 C59.062,32.856 59.348,32.971 59.585,33.199 C59.823,33.43 59.942,33.707 59.942,34.029 C59.942,34.318 59.845,34.572 59.652,34.791 C59.459,35.009 59.218,35.141 58.928,35.187 L60.056,36.879 L59.528,36.879 L58.423,35.205 Z M64.154,32.856 L64.154,33.305 L62.818,33.305 L62.818,36.879 L62.394,36.879 L62.394,33.305 L61.058,33.305 L61.058,32.856 L64.154,32.856 Z M67.802,35.568 C67.735,35.298 67.584,35.069 67.349,34.882 C67.257,34.808 67.145,34.735 67.014,34.663 C66.961,34.635 66.902,34.605 66.837,34.573 L66.749,34.531 L66.661,34.488 L66.516,34.418 C66.138,34.234 65.906,34.051 65.82,33.869 C65.789,33.804 65.776,33.738 65.782,33.673 C65.785,33.65 65.791,33.626 65.799,33.601 L65.809,33.573 L65.818,33.548 C65.861,33.439 65.93,33.355 66.025,33.295 C66.098,33.248 66.183,33.216 66.28,33.199 C66.436,33.171 66.594,33.184 66.756,33.237 C66.92,33.291 67.048,33.372 67.142,33.483 L67.459,33.184 C67.314,33.017 67.127,32.894 66.897,32.816 C66.668,32.737 66.439,32.719 66.209,32.761 C65.826,32.828 65.566,33.031 65.427,33.372 C65.2,33.934 65.504,34.417 66.337,34.821 C66.404,34.855 66.453,34.879 66.485,34.894 C66.764,35.026 66.957,35.132 67.064,35.212 C67.237,35.343 67.346,35.499 67.392,35.681 C67.426,35.818 67.421,35.946 67.378,36.066 C67.367,36.098 67.352,36.132 67.333,36.165 C67.228,36.344 67.056,36.462 66.816,36.518 C66.575,36.577 66.339,36.566 66.109,36.483 C65.877,36.403 65.678,36.262 65.511,36.06 L65.189,36.351 C65.55,36.783 65.993,37 66.518,37 C66.65,37 66.781,36.984 66.911,36.952 C67.268,36.867 67.53,36.681 67.695,36.396 C67.757,36.289 67.799,36.178 67.821,36.066 C67.824,36.05 67.826,36.034 67.828,36.017 C67.839,35.95 67.843,35.883 67.84,35.814 L67.838,35.814 C67.834,35.734 67.822,35.652 67.802,35.568 Z M74.197,32.856 L74.197,36.879 L73.773,36.879 L73.773,34.897 L71.437,34.897 L71.437,36.879 L71.013,36.879 L71.013,32.856 L71.437,32.856 L71.437,34.45 L73.773,34.45 L73.773,32.856 L74.197,32.856 Z M78.452,32.856 L78.452,33.305 L76.348,33.305 L76.348,34.393 L78.071,34.393 L78.071,34.841 L76.348,34.841 L76.348,36.433 L78.504,36.433 L78.504,36.879 L75.923,36.879 L75.923,32.856 L78.452,32.856 Z M80.305,34.759 L81.107,34.759 C81.326,34.759 81.513,34.688 81.666,34.546 C81.822,34.402 81.9,34.23 81.9,34.029 C81.9,33.829 81.822,33.657 81.666,33.515 C81.513,33.373 81.326,33.302 81.107,33.302 L80.305,33.302 L80.305,34.759 Z M80.805,35.205 L80.305,35.205 L80.305,36.879 L79.88,36.879 L79.88,32.856 L81.107,32.856 C81.443,32.856 81.731,32.971 81.966,33.199 C82.204,33.43 82.323,33.707 82.323,34.029 C82.323,34.318 82.228,34.572 82.033,34.791 C81.841,35.009 81.6,35.141 81.31,35.187 L82.439,36.879 L81.909,36.879 L80.805,35.205 Z M86.359,32.856 L86.359,33.305 L84.254,33.305 L84.254,34.393 L85.979,34.393 L85.979,34.841 L84.254,34.841 L84.254,36.433 L86.412,36.433 L86.412,36.879 L83.83,36.879 L83.83,32.856 L86.359,32.856 Z" id="Fill-21" fill="#D19537"></path>
                            <path d="M87.8496,32.8575 L87.8496,32.9795 L87.4866,32.9795 L87.4866,33.9515 L87.3706,33.9515 L87.3706,32.9795 L87.0066,32.9795 L87.0066,32.8575 L87.8496,32.8575 Z M89.2856,32.8565 L89.2856,33.9515 L89.1696,33.9515 L89.1696,33.0465 L88.7456,33.7005 L88.3226,33.0465 L88.3226,33.9515 L88.2056,33.9515 L88.2056,32.8565 L88.3376,32.8565 L88.7456,33.4845 L89.1536,32.8565 L89.2856,32.8565 Z" id="Fill-23" fill="#D19537"></path>
                        </g>
                    </g>
                </g>
            </g>
        </g>
    </g>
</svg>