<svg width="62" height="75" xmlns="http://www.w3.org/2000/svg">
  <g fill="none" fill-rule="evenodd">
    <path d="M15.45 26.44c-6.99.36-12.537 5.73-12.537 12.3S8.46 50.68 15.45 51.04" stroke="#6D5C62" stroke-width="4.284"/>
    <path d="M20.958 16.532v35.043c0 4.65 1.692 8.63 5.073 11.94 3.36 3.288 7.419 4.932 12.189 4.932 4.74 0 8.802-1.644 12.183-4.932 3.36-3.31 5.037-7.29 5.037-11.94V16.532h6.306v35.043c0 6.387-2.304 11.835-6.903 16.344-4.602 4.53-10.146 6.798-16.623 6.798-6.483 0-12.027-2.268-16.626-6.798-4.602-4.51-6.906-9.957-6.906-16.344V16.532h6.27z" fill="#4E3C44"/>
    <path d="M38.19 16.72a.632.632 0 0 1-.075-.007c-4.977-.855-5.598-3.564-5.634-4.689-.09-2.799 2.56-5.643 6.033-6.474a87.108 87.108 0 0 1 3.846-.8c4.44-.853 7.947-1.525 10.38-5.116 1.42-2.09 1.627-5.148.502-7.272-.795-1.497-2.151-2.325-3.82-2.325-.18 0-.362.01-.554.03l-.093.003a.816.816 0 0 1-.706-.39c-.17-.288-.162-.669.024-1.014.864-1.59 3.01-2.616 5.463-2.616a8.6 8.6 0 0 1 5.863 2.283c1.659 1.536 3.192 5.89 1.755 10.068-1.288 3.744-5.325 8.415-17.248 9.426-3.74.315-8.529 2.481-8.861 4.692-.216 1.428 1.686 2.514 3.318 3.174a.533.533 0 0 1-.192 1.026" fill="#6D5C62"/>
    <path d="M31.833 8.312a.669.669 0 0 1-.498-.218.655.655 0 0 1-.16-.514c.463-4.095 1.915-6.237 5.188-7.632.828-.36 1.85-.639 2.838-.909 1.218-.336 2.478-.68 3.405-1.167l.177-.096c1.422-.744 3.573-1.872 3.882-4.074a.488.488 0 0 1 .387-.408.968.968 0 0 1 .093-.006c.17 0 .336.09.42.243 1.326 2.346 1.01 4.099.516 5.154-.744 1.587-2.43 2.763-4.515 3.138-.507.093-1.02.178-1.536.265-4.11.678-7.99 1.32-9.55 5.771a.68.68 0 0 1-.647.453" fill="#6D5C62"/>
    <path d="M19.033 17.841v35.31c0 4.755 1.875 8.83 5.622 12.216 3.72 3.363 8.226 5.046 13.512 5.046 5.26 0 9.765-1.683 13.512-5.046 3.72-3.387 5.583-7.46 5.583-12.216v-35.31c-4.35 1.161-11.262 1.926-19.116 1.926-7.85 0-14.763-.765-19.113-1.926" fill="#DFB676"/>
    <path d="M38.275 19.04c22.521 0 22.521-1.21 22.521-2.181 0-.972 0-2.181-22.52-2.181-22.525 0-22.525 1.209-22.525 2.18 0 .973 0 2.182 22.524 2.182" fill="#DFB676"/>
    <path d="M38.275 19.04c22.521 0 22.521-1.21 22.521-2.181 0-.972 0-2.181-22.52-2.181-22.525 0-22.525 1.209-22.525 2.18 0 .973 0 2.182 22.524 2.182z" stroke="#6D5C62" stroke-width="2.01"/>
  </g>
</svg>