<svg width="62px" height="75px" viewBox="0 0 62 75" version="1.1" xmlns="http://www.w3.org/2000/svg" xmlns:xlink="http://www.w3.org/1999/xlink">
    <!-- Generator: Sketch 49 (51002) - http://www.bohemiancoding.com/sketch -->
    <desc>Created with Sketch.</desc>
    <defs></defs>
    <g id="Page-1" stroke="none" stroke-width="1" fill="none" fill-rule="evenodd">
        <g id="Shopping-List" transform="translate(-136.000000, 0.000000)">
            <g id="header" transform="translate(-118.000000, -1.000000)">
                <g id="logo" transform="translate(168.000000, 16.000000)">
                    <g id="Group-25" transform="translate(0.000000, 0.975100)">
                        <g id="Group-4" transform="translate(88.000000, -30.000000)">
                            <path d="M13.4502,40.4649 C6.4602,40.8249 0.9132,46.1949 0.9132,52.7649 C0.9132,59.3349 6.4602,64.7049 13.4502,65.0649" id="Stroke-4" stroke="#6D5C62" stroke-width="4.284"></path>
                            <path d="M18.9579,30.5568 L18.9579,65.5998 C18.9579,70.2498 20.6499,74.2308 24.0309,77.5398 C27.3909,80.8278 31.4499,82.4718 36.2199,82.4718 C40.9599,82.4718 45.0219,80.8278 48.4029,77.5398 C51.7629,74.2308 53.4399,70.2498 53.4399,65.5998 L53.4399,30.5568 L59.7459,30.5568 L59.7459,65.5998 C59.7459,71.9868 57.4419,77.4348 52.8429,81.9438 C48.2409,86.4738 42.6969,88.7418 36.2199,88.7418 C29.7369,88.7418 24.1929,86.4738 19.5939,81.9438 C14.9919,77.4348 12.6879,71.9868 12.6879,65.5998 L12.6879,30.5568 L18.9579,30.5568 Z" id="Fill-9" fill="#4E3C44"></path>
                            <path d="M36.1905,30.7443 C36.1665,30.7443 36.1395,30.7413 36.1155,30.7383 C31.1385,29.8833 30.5175,27.1743 30.4815,26.0493 C30.3915,23.2503 33.0405,20.4063 36.5145,19.5753 C37.8615,19.2543 39.1275,19.0113 40.3605,18.7743 C44.8005,17.9223 48.3075,17.2503 50.7405,13.6593 C52.1595,11.5683 52.3665,8.5113 51.2415,6.3873 C50.4465,4.8903 49.0905,4.0623 47.4225,4.0623 C47.2425,4.0623 47.0595,4.0713 46.8675,4.0923 C46.8525,4.0923 46.7895,4.0953 46.7745,4.0953 C46.4805,4.0953 46.2165,3.9483 46.0695,3.7053 C45.8985,3.4173 45.9075,3.0363 46.0935,2.6913 C46.9575,1.1013 49.1025,0.0753 51.5565,0.0753 C53.7435,0.0753 55.8285,0.8853 57.4185,2.3583 C59.0775,3.8943 60.6105,8.2473 59.1735,12.4263 C57.8865,16.1703 53.8485,20.8413 41.9265,21.8523 C38.1855,22.1673 33.3975,24.3333 33.0645,26.5443 C32.8485,27.9723 34.7505,29.0583 36.3825,29.7183 C36.6165,29.8113 36.7545,30.0603 36.7095,30.3123 C36.6615,30.5613 36.4425,30.7443 36.1905,30.7443" id="Fill-11" fill="#6D5C62"></path>
                            <path d="M29.8329,22.3374 C29.6409,22.3374 29.4579,22.2564 29.3349,22.1184 C29.2119,21.9804 29.1549,21.7974 29.1759,21.6054 C29.6379,17.5104 31.0899,15.3684 34.3629,13.9734 C35.1909,13.6134 36.2139,13.3344 37.2009,13.0644 C38.4189,12.7284 39.6789,12.3834 40.6059,11.8974 L40.7829,11.8014 C42.2049,11.0574 44.3559,9.9294 44.6649,7.7274 C44.6919,7.5234 44.8539,7.3584 45.0519,7.3194 C45.0819,7.3164 45.1149,7.3134 45.1449,7.3134 C45.3159,7.3134 45.4809,7.4034 45.5649,7.5564 C46.8909,9.9024 46.5759,11.6544 46.0809,12.7104 C45.3369,14.2974 43.6509,15.4734 41.5659,15.8484 C41.0589,15.9414 40.5459,16.0254 40.0299,16.1124 C35.9199,16.7904 32.0409,17.4324 30.4809,21.8844 C30.3879,22.1544 30.1299,22.3374 29.8329,22.3374" id="Fill-13" fill="#6D5C62"></path>
                            <path d="M17.0331,31.8663 L17.0331,67.1763 C17.0331,71.9313 18.9081,76.0053 22.6551,79.3923 C26.3751,82.7553 30.8811,84.4383 36.1671,84.4383 C41.4261,84.4383 45.9321,82.7553 49.6791,79.3923 C53.3991,76.0053 55.2621,71.9313 55.2621,67.1763 L55.2621,31.8663 C50.9121,33.0273 44.0001,33.7923 36.1461,33.7923 C28.2951,33.7923 21.3831,33.0273 17.0331,31.8663" id="Fill-15" fill="#DFB676"></path>
                            <path d="M36.2754,33.0645 C58.7964,33.0645 58.7964,31.8555 58.7964,30.8835 C58.7964,29.9115 58.7964,28.7025 36.2754,28.7025 C13.7514,28.7025 13.7514,29.9115 13.7514,30.8835 C13.7514,31.8555 13.7514,33.0645 36.2754,33.0645" id="Fill-17" fill="#DFB676"></path>
                            <path d="M36.2754,33.0645 C58.7964,33.0645 58.7964,31.8555 58.7964,30.8835 C58.7964,29.9115 58.7964,28.7025 36.2754,28.7025 C13.7514,28.7025 13.7514,29.9115 13.7514,30.8835 C13.7514,31.8555 13.7514,33.0645 36.2754,33.0645 Z" id="Stroke-19" stroke="#6D5C62" stroke-width="2.01"></path>
                        </g>
                    </g>
                </g>
            </g>
        </g>
    </g>
</svg>