<?xml version="1.0" standalone="no"?><!-- Generator: Gravit.io --><svg xmlns="http://www.w3.org/2000/svg" xmlns:xlink="http://www.w3.org/1999/xlink" style="isolation:isolate" viewBox="6131 2263 151.174 36.975" width="151.174" height="36.975"><g id="logo"><g id="Group 6"><g id="Group 3"><clipPath id="_clipPath_p6E9PwmeTu3U5cCoa1cHw3WN5LsTDxSu"><path d=" M 6131 2272.671 L 6131 2292.629 L 6282.174 2292.629 L 6282.174 2272.671 L 6131 2272.671 Z " fill-rule="evenodd" fill="rgb(255,255,255)"/></clipPath><g clip-path="url(#_clipPath_p6E9PwmeTu3U5cCoa1cHw3WN5LsTDxSu)"><path d=" M 6143.468 2273.223 L 6143.468 2275.324 L 6133.09 2275.324 L 6133.09 2280.948 L 6141.59 2280.948 L 6141.59 2283.038 L 6133.09 2283.038 L 6133.09 2292.066 L 6131 2292.066 L 6131 2273.223 L 6143.468 2273.223 Z  M 6151.929 2282.134 Q 6155.885 2282.134 6155.885 2282.134 C 6156.965 2282.134 6157.885 2281.801 6158.644 2281.136 C 6159.403 2280.471 6159.795 2279.657 6159.795 2278.717 C 6159.795 2277.777 6159.411 2276.976 6158.644 2276.311 C 6157.877 2275.646 6156.965 2275.313 6155.885 2275.313 Q 6155.885 2275.313 6151.929 2275.313 L 6151.929 2282.134 Z  M 6154.394 2284.223 L 6151.929 2284.223 L 6151.929 2292.066 L 6149.839 2292.066 L 6149.839 2273.223 Q 6155.885 2273.223 6155.885 2273.223 C 6157.544 2273.223 6158.957 2273.759 6160.123 2274.831 C 6161.289 2275.903 6161.884 2277.207 6161.884 2278.717 C 6161.884 2280.227 6161.407 2281.261 6160.452 2282.286 C 6159.497 2283.311 6158.315 2283.922 6156.883 2284.141 Q 6156.883 2284.141 6161.955 2291.42 L 6160.241 2292.618 L 6154.394 2284.223 Z  M 6169.312 2292.066 L 6171.402 2292.066 L 6171.402 2273.223 L 6169.312 2273.223 L 6169.312 2292.066 Z  M 6190.981 2285.926 C 6190.652 2284.658 6189.908 2283.586 6188.75 2282.709 C 6188.296 2282.365 6187.744 2282.024 6187.095 2281.688 C 6186.836 2281.554 6186.547 2281.414 6186.226 2281.265 Q 6186.226 2281.265 6185.791 2281.065 L 6185.357 2280.866 Q 6184.641 2280.537 6184.641 2280.537 C 6182.778 2279.676 6181.635 2278.819 6181.213 2277.966 C 6181.056 2277.661 6180.994 2277.356 6181.025 2277.05 C 6181.041 2276.941 6181.068 2276.827 6181.107 2276.71 Q 6181.107 2276.71 6181.154 2276.581 Q 6181.201 2276.463 6181.201 2276.463 C 6181.412 2275.955 6181.753 2275.559 6182.222 2275.278 C 6182.691 2274.997 6183.001 2274.91 6183.479 2274.831 C 6184.247 2274.704 6185.028 2274.757 6185.827 2275.007 C 6186.626 2275.257 6187.267 2275.641 6187.729 2276.158 C 6187.729 2276.158 6189.29 2274.761 6189.29 2274.761 C 6188.578 2273.978 6187.654 2273.403 6186.519 2273.035 C 6185.384 2272.667 6184.261 2272.581 6183.126 2272.777 C 6181.242 2273.103 6179.957 2274.045 6179.276 2275.641 C 6178.154 2278.27 6179.651 2280.533 6183.76 2282.427 C 6184.091 2282.58 6184.332 2282.697 6184.488 2282.768 C 6185.862 2283.394 6186.817 2283.883 6187.341 2284.259 C 6188.193 2284.871 6188.734 2285.601 6188.961 2286.454 C 6189.126 2287.096 6189.102 2287.695 6188.891 2288.25 C 6188.836 2288.407 6188.762 2288.563 6188.668 2288.72 C 6188.151 2289.557 6187.302 2290.109 6186.12 2290.375 C 6184.938 2290.641 6183.768 2290.594 6182.633 2290.211 C 6181.498 2289.828 6180.508 2289.174 6179.687 2288.227 C 6179.687 2288.227 6178.102 2289.589 6178.102 2289.589 C 6179.878 2291.616 6182.062 2292.629 6184.653 2292.629 C 6185.302 2292.629 6185.948 2292.555 6186.59 2292.406 C 6188.349 2291.998 6189.638 2291.138 6190.452 2289.8 C 6190.757 2289.299 6190.965 2288.783 6191.074 2288.25 C 6191.09 2288.18 6191.102 2288.106 6191.11 2288.027 C 6191.164 2287.714 6191.184 2287.397 6191.168 2287.076 C 6191.168 2287.076 6191.157 2287.076 6191.157 2287.076 C 6191.141 2286.701 6191.082 2286.317 6190.981 2285.926 C 6190.981 2285.926 6190.981 2285.926 6190.981 2285.926 Z  M 6213.729 2273.223 L 6213.729 2292.066 L 6211.639 2292.066 L 6211.639 2282.779 L 6200.122 2282.779 L 6200.122 2292.066 L 6198.033 2292.066 L 6198.033 2273.223 L 6200.122 2273.223 L 6200.122 2280.69 L 6211.639 2280.69 L 6211.639 2273.223 L 6213.729 2273.223 Z  M 6235.691 2273.223 L 6235.691 2275.324 L 6229.105 2275.324 L 6229.105 2292.066 L 6227.015 2292.066 L 6227.015 2275.324 L 6220.429 2275.324 L 6220.429 2273.223 L 6235.691 2273.223 Z  M 6275.036 2274.749 C 6272.806 2274.749 6270.9 2275.52 6269.318 2277.062 C 6267.736 2278.604 6266.947 2280.475 6266.947 2282.65 C 6266.947 2284.825 6267.738 2286.685 6269.318 2288.227 C 6270.898 2289.769 6272.806 2290.54 6275.036 2290.54 C 6276.844 2290.54 6278.527 2290.051 6280.084 2289.072 Q 6280.084 2289.072 6280.084 2283.625 L 6275.224 2283.625 L 6275.224 2281.535 L 6282.174 2281.535 L 6282.174 2290.176 Q 6281.728 2290.481 6281.728 2290.481 C 6280.491 2291.334 6279.255 2291.929 6278.018 2292.265 C 6277.126 2292.508 6276.132 2292.629 6275.036 2292.629 C 6273.659 2292.629 6272.34 2292.367 6271.08 2291.843 C 6269.82 2291.319 6268.778 2290.622 6267.839 2289.706 C 6266.9 2288.79 6266.172 2287.722 6265.656 2286.525 C 6265.14 2285.328 6264.858 2283.997 6264.858 2282.65 C 6264.858 2281.303 6265.124 2280.001 6265.656 2278.764 C 6266.188 2277.527 6266.9 2276.518 6267.839 2275.594 C 6269.823 2273.642 6272.226 2272.671 6275.036 2272.671 C 6276.132 2272.671 6277.126 2272.793 6278.018 2273.035 C 6279.253 2273.37 6280.491 2273.955 6281.728 2274.808 C 6281.728 2274.808 6280.53 2276.522 6280.53 2276.522 C 6278.824 2275.34 6276.993 2274.749 6275.036 2274.749 C 6275.036 2274.749 6275.036 2274.749 6275.036 2274.749 Z " fill-rule="evenodd" fill="rgb(78,60,68)"/></g></g><mask id="_mask_lMHEZAXFcxreAN6gmFEjUy3e7omU1Zah"><path d=" M 6243.483 2276.463 C 6241.153 2276.583 6239.304 2278.373 6239.304 2280.563 C 6239.304 2282.753 6241.153 2284.543 6243.483 2284.663" fill-rule="evenodd" fill="white" stroke="none"/></mask><path d=" M 6243.483 2276.463 C 6241.153 2276.583 6239.304 2278.373 6239.304 2280.563 C 6239.304 2282.753 6241.153 2284.543 6243.483 2284.663" fill-rule="evenodd" fill="none" mask="url(#_mask_lMHEZAXFcxreAN6gmFEjUy3e7omU1Zah)" vector-effect="non-scaling-stroke" stroke-width="2.856" stroke="rgb(109,92,98)" stroke-linejoin="miter" stroke-linecap="square" stroke-miterlimit="10"/></g><g transform="matrix(1,0,0,1,6244.289,2292.645)"><text transform="matrix(1,0,0,1,0,3.207)" style="font-family:&quot;Open Sans&quot;;font-weight:400;font-size:3px;font-style:normal;fill:#3d2d34;stroke:none;">C</text></g><g transform="matrix(1,0,0,1,6249.208,2292.387)"><text transform="matrix(1,0,0,1,0,4.275)" style="font-family:&quot;Open Sans&quot;;font-weight:400;font-size:4px;font-style:normal;fill:#3d2d34;stroke:none;">O</text></g><g transform="matrix(1,0,0,1,6255.01,2291.041)"><text transform="matrix(1,0,0,1,0,5.344)" style="font-family:&quot;Open Sans&quot;;font-weight:400;font-size:5px;font-style:normal;fill:#3d2d34;stroke:none;">M</text></g><g id="Group 25"><path d=" M 6242.076 2295.096 C 6242.542 2295.245 6243.038 2294.989 6243.188 2294.525 C 6243.337 2294.061 6243.081 2293.563 6242.616 2293.414 C 6242.151 2293.265 6241.654 2293.52 6241.505 2293.985 C 6241.357 2294.45 6241.611 2294.947 6242.076 2295.096" fill-rule="evenodd" fill="rgb(78,60,68)"/><path d=" M 6245.319 2273.161 Q 6245.319 2284.842 6245.319 2284.842 C 6245.319 2286.392 6245.883 2287.719 6247.01 2288.822 C 6248.137 2289.925 6249.483 2290.466 6251.073 2290.466 C 6252.663 2290.466 6254.007 2289.918 6255.134 2288.822 C 6256.261 2287.726 6256.813 2286.392 6256.813 2284.842 Q 6256.813 2284.842 6256.813 2273.161 L 6258.915 2273.161 Q 6258.915 2284.842 6258.915 2284.842 C 6258.915 2286.971 6258.147 2288.787 6256.614 2290.29 C 6255.081 2291.793 6253.232 2292.556 6251.073 2292.556 C 6248.914 2292.556 6247.064 2291.8 6245.531 2290.29 C 6243.998 2288.78 6243.229 2286.971 6243.229 2284.842 Q 6243.229 2284.842 6243.229 2273.161 L 6245.319 2273.161 Z " fill-rule="evenodd" fill="rgb(78,60,68)"/><path d=" M 6251.064 2273.223 C 6251.056 2273.223 6251.047 2273.222 6251.039 2273.221 C 6249.38 2272.936 6249.172 2272.033 6249.16 2271.658 C 6249.131 2270.725 6250.014 2269.777 6251.172 2269.5 C 6251.621 2269.393 6252.044 2269.312 6252.455 2269.233 C 6253.935 2268.949 6255.105 2268.725 6255.916 2267.528 C 6256.389 2266.831 6256.458 2265.812 6256.083 2265.104 C 6255.819 2264.605 6255.366 2264.329 6254.81 2264.329 C 6254.75 2264.329 6254.689 2264.332 6254.625 2264.339 C 6254.62 2264.339 6254.599 2264.34 6254.594 2264.34 C 6254.589 2264.34 6254.408 2264.291 6254.359 2264.21 C 6254.31 2264.129 6254.305 2263.987 6254.367 2263.872 C 6254.653 2263.341 6255.37 2263 6256.188 2263 C 6257.007 2263 6257.613 2263.27 6258.143 2263.761 C 6258.673 2264.252 6259.207 2265.724 6258.728 2267.117 C 6258.299 2268.365 6256.953 2269.922 6252.977 2270.259 C 6251.73 2270.365 6250.133 2271.086 6250.022 2271.823 C 6249.95 2272.299 6250.584 2272.661 6251.128 2272.881 C 6251.206 2272.913 6251.252 2272.995 6251.237 2273.079 C 6251.221 2273.162 6251.148 2273.223 6251.064 2273.223" fill-rule="evenodd" fill="rgb(109,92,98)"/><path d=" M 6248.944 2270.421 C 6248.88 2270.421 6248.819 2270.394 6248.778 2270.348 C 6248.737 2270.302 6248.718 2270.241 6248.725 2270.177 C 6248.875 2268.811 6249.363 2268.098 6250.454 2267.633 C 6250.731 2267.515 6251.071 2267.42 6251.4 2267.33 C 6251.807 2267.219 6252.226 2267.103 6252.535 2266.941 C 6252.535 2266.941 6252.594 2266.909 6252.594 2266.909 C 6253.068 2266.661 6253.785 2266.285 6253.888 2265.551 C 6253.898 2265.483 6253.951 2265.428 6254.017 2265.415 C 6254.027 2265.414 6254.038 2265.413 6254.048 2265.413 C 6254.058 2265.413 6254.16 2265.443 6254.188 2265.494 C 6254.63 2266.276 6254.525 2266.86 6254.36 2267.212 C 6254.112 2267.741 6253.55 2268.133 6252.855 2268.258 C 6252.686 2268.288 6252.515 2268.317 6252.343 2268.346 C 6250.974 2268.577 6249.68 2268.786 6249.16 2270.27 C 6249.129 2270.36 6249.043 2270.421 6248.944 2270.421" fill-rule="evenodd" fill="rgb(109,92,98)"/><path d=" M 6244.678 2273.597 Q 6244.678 2285.367 6244.678 2285.367 C 6244.678 2286.952 6245.303 2288.31 6246.552 2289.439 C 6247.801 2290.568 6249.294 2291.121 6251.056 2291.121 C 6252.818 2291.121 6254.311 2290.56 6255.56 2289.439 C 6256.809 2288.318 6257.421 2286.952 6257.421 2285.367 C 6257.421 2285.367 6257.421 2273.597 6257.421 2273.597 C 6255.971 2273.984 6253.667 2274.239 6251.049 2274.239 C 6248.431 2274.239 6246.128 2273.984 6244.678 2273.597" fill-rule="evenodd" fill="rgb(223,182,118)"/><path d=" M 6251.092 2273.997 C 6258.599 2273.997 6258.599 2273.594 6258.599 2273.27 C 6258.599 2272.946 6258.599 2272.543 6251.092 2272.543 C 6243.585 2272.543 6243.584 2272.946 6243.584 2273.27 C 6243.584 2273.594 6243.584 2273.997 6251.092 2273.997" fill-rule="evenodd" fill="rgb(223,182,118)"/><mask id="_mask_qtRHLj9I4D6SQideN1KZaE9xMbwclA28"><path d=" M 6251.092 2273.997 C 6258.6 2273.997 6258.599 2273.594 6258.599 2273.27 C 6258.599 2272.946 6258.599 2272.543 6251.092 2272.543 C 6243.585 2272.543 6243.584 2272.946 6243.584 2273.27 C 6243.584 2273.594 6243.584 2273.997 6251.092 2273.997 Z " fill-rule="evenodd" fill="white" stroke="none"/></mask><path d=" M 6251.092 2273.997 C 6258.6 2273.997 6258.599 2273.594 6258.599 2273.27 C 6258.599 2272.946 6258.599 2272.543 6251.092 2272.543 C 6243.585 2272.543 6243.584 2272.946 6243.584 2273.27 C 6243.584 2273.594 6243.584 2273.997 6251.092 2273.997 Z " fill-rule="evenodd" fill="none" mask="url(#_mask_qtRHLj9I4D6SQideN1KZaE9xMbwclA28)" vector-effect="non-scaling-stroke" stroke-width="1.34" stroke="rgb(109,92,98)" stroke-linejoin="miter" stroke-linecap="square" stroke-miterlimit="10"/><path d=" M 6133.043 2295.831 L 6134.667 2299.797 L 6134.279 2299.975 L 6133.843 2298.914 L 6131.826 2298.914 L 6131.39 2299.975 L 6131 2299.797 L 6132.636 2295.831 L 6133.043 2295.831 Z  M 6132.012 2298.468 L 6133.662 2298.468 L 6132.838 2296.46 L 6132.012 2298.468 Z  M 6140.491 2295.831 L 6140.491 2296.28 L 6138.386 2296.28 L 6138.386 2297.48 L 6140.11 2297.48 L 6140.11 2297.927 L 6138.386 2297.927 L 6138.386 2299.854 L 6137.962 2299.854 L 6137.962 2295.831 L 6140.491 2295.831 Z  M 6142.207 2297.734 Q 6143.01 2297.734 6143.01 2297.734 C 6143.229 2297.734 6143.415 2297.663 6143.569 2297.521 C 6143.723 2297.379 6143.803 2297.205 6143.803 2297.004 C 6143.803 2296.803 6143.725 2296.632 6143.569 2296.49 C 6143.413 2296.348 6143.229 2296.277 6143.01 2296.277 Q 6143.01 2296.277 6142.207 2296.277 L 6142.207 2297.734 Z  M 6142.707 2298.18 L 6142.207 2298.18 L 6142.207 2299.854 L 6141.783 2299.854 L 6141.783 2295.831 Q 6143.01 2295.831 6143.01 2295.831 C 6143.346 2295.831 6143.633 2295.946 6143.869 2296.174 C 6144.105 2296.402 6144.227 2296.682 6144.227 2297.004 C 6144.227 2297.326 6144.13 2297.547 6143.936 2297.766 C 6143.742 2297.985 6143.503 2298.116 6143.212 2298.162 Q 6143.212 2298.162 6144.341 2299.854 L 6143.812 2299.854 L 6142.707 2298.18 Z  M 6148.262 2295.831 L 6148.262 2296.28 L 6146.157 2296.28 L 6146.157 2297.368 L 6147.881 2297.368 L 6147.881 2297.816 L 6146.157 2297.816 L 6146.157 2299.408 L 6148.315 2299.408 L 6148.315 2299.854 L 6145.733 2299.854 L 6145.733 2295.831 L 6148.262 2295.831 Z  M 6152.213 2298.543 C 6152.146 2298.273 6151.995 2298.044 6151.76 2297.857 C 6151.668 2297.783 6151.556 2297.71 6151.424 2297.638 C 6151.372 2297.61 6151.313 2297.58 6151.248 2297.548 Q 6151.248 2297.548 6151.16 2297.506 L 6151.072 2297.463 Q 6150.927 2297.393 6150.927 2297.393 C 6150.549 2297.209 6150.317 2297.026 6150.231 2296.844 C 6150.199 2296.779 6150.187 2296.713 6150.193 2296.648 C 6150.196 2296.625 6150.202 2296.601 6150.21 2296.576 Q 6150.21 2296.576 6150.219 2296.548 Q 6150.229 2296.523 6150.229 2296.523 C 6150.272 2296.414 6150.341 2296.33 6150.436 2296.27 C 6150.531 2296.21 6150.594 2296.191 6150.691 2296.174 C 6150.846 2296.147 6151.005 2296.159 6151.167 2296.212 C 6151.329 2296.265 6151.459 2296.347 6151.553 2296.458 C 6151.553 2296.458 6151.87 2296.159 6151.87 2296.159 C 6151.725 2295.992 6151.538 2295.869 6151.308 2295.791 C 6151.078 2295.713 6150.849 2295.694 6150.619 2295.736 C 6150.237 2295.806 6149.976 2296.006 6149.838 2296.347 C 6149.611 2296.909 6149.914 2297.392 6150.748 2297.796 C 6150.815 2297.83 6150.864 2297.854 6150.896 2297.869 C 6151.175 2298 6151.368 2298.107 6151.474 2298.187 C 6151.647 2298.318 6151.757 2298.474 6151.803 2298.656 C 6151.836 2298.793 6151.831 2298.921 6151.789 2299.041 C 6151.777 2299.073 6151.762 2299.107 6151.743 2299.14 C 6151.64 2299.319 6151.466 2299.437 6151.227 2299.493 C 6150.988 2299.549 6150.749 2299.541 6150.519 2299.458 C 6150.289 2299.375 6150.088 2299.237 6149.922 2299.035 C 6149.922 2299.035 6149.6 2299.326 6149.6 2299.326 C 6149.96 2299.758 6150.403 2299.975 6150.929 2299.975 C 6151.061 2299.975 6151.192 2299.959 6151.322 2299.927 C 6151.678 2299.839 6151.94 2299.656 6152.105 2299.371 C 6152.167 2299.264 6152.209 2299.153 6152.232 2299.041 C 6152.235 2299.025 6152.237 2299.009 6152.239 2298.992 C 6152.25 2298.925 6152.254 2298.858 6152.251 2298.789 C 6152.251 2298.789 6152.248 2298.789 6152.248 2298.789 C 6152.245 2298.709 6152.233 2298.627 6152.213 2298.543 C 6152.213 2298.543 6152.213 2298.543 6152.213 2298.543 Z  M 6156.827 2295.831 L 6156.827 2299.854 L 6156.403 2299.854 L 6156.403 2297.872 L 6154.067 2297.872 L 6154.067 2299.854 L 6153.643 2299.854 L 6153.643 2295.831 L 6154.067 2295.831 L 6154.067 2297.425 L 6156.403 2297.425 L 6156.403 2295.831 L 6156.827 2295.831 Z  M 6161.277 2299.406 C 6161.737 2299.406 6162.131 2299.253 6162.46 2298.947 C 6162.789 2298.641 6162.951 2298.273 6162.951 2297.841 C 6162.951 2297.409 6162.787 2297.042 6162.46 2296.736 C 6162.133 2296.43 6161.737 2296.277 6161.277 2296.277 Q 6161.277 2296.277 6160.545 2296.277 L 6160.545 2299.406 Q 6161.277 2299.406 6161.277 2299.406 Z  M 6161.277 2295.831 C 6161.854 2295.831 6162.349 2296.027 6162.76 2296.42 C 6162.954 2296.606 6163.104 2296.819 6163.21 2297.059 C 6163.316 2297.299 6163.375 2297.569 6163.375 2297.841 C 6163.375 2298.113 6163.32 2298.375 6163.21 2298.624 C 6163.1 2298.873 6162.954 2299.077 6162.76 2299.263 C 6162.349 2299.657 6161.854 2299.854 6161.277 2299.854 Q 6161.277 2299.854 6160.122 2299.854 L 6160.122 2295.831 Q 6161.277 2295.831 6161.277 2295.831 Z  M 6166.348 2295.831 L 6167.996 2299.854 L 6167.532 2299.854 L 6167.148 2298.914 L 6165.131 2298.914 L 6164.746 2299.854 L 6164.279 2299.854 L 6165.941 2295.831 L 6166.348 2295.831 Z  M 6165.317 2298.468 L 6166.967 2298.468 L 6166.144 2296.46 L 6165.317 2298.468 Z  M 6171.949 2295.834 L 6170.415 2298.072 L 6170.415 2299.854 L 6169.991 2299.854 L 6169.991 2298.085 L 6168.458 2295.836 L 6168.986 2295.834 L 6170.201 2297.621 L 6171.418 2295.834 L 6171.949 2295.834 Z  M 6177.856 2298.543 C 6177.789 2298.273 6177.638 2298.044 6177.403 2297.857 C 6177.311 2297.783 6177.199 2297.71 6177.067 2297.638 C 6177.015 2297.61 6176.956 2297.58 6176.891 2297.548 Q 6176.891 2297.548 6176.803 2297.506 L 6176.715 2297.463 Q 6176.57 2297.393 6176.57 2297.393 C 6176.192 2297.209 6175.96 2297.026 6175.874 2296.844 C 6175.843 2296.779 6175.83 2296.713 6175.836 2296.648 C 6175.839 2296.625 6175.845 2296.601 6175.853 2296.576 Q 6175.853 2296.576 6175.862 2296.548 Q 6175.872 2296.523 6175.872 2296.523 C 6175.915 2296.414 6175.984 2296.33 6176.079 2296.27 C 6176.174 2296.21 6176.237 2296.191 6176.334 2296.174 C 6176.49 2296.147 6176.648 2296.159 6176.81 2296.212 C 6176.972 2296.265 6177.102 2296.347 6177.196 2296.458 C 6177.196 2296.458 6177.513 2296.159 6177.513 2296.159 C 6177.368 2295.992 6177.181 2295.869 6176.951 2295.791 C 6176.721 2295.713 6176.493 2295.694 6176.263 2295.736 C 6175.881 2295.806 6175.62 2296.006 6175.481 2296.347 C 6175.252 2296.908 6175.558 2297.392 6176.391 2297.796 C 6176.458 2297.83 6176.507 2297.854 6176.539 2297.869 C 6176.818 2298 6177.011 2298.107 6177.117 2298.187 C 6177.291 2298.318 6177.4 2298.474 6177.446 2298.656 C 6177.479 2298.793 6177.475 2298.921 6177.432 2299.041 C 6177.421 2299.073 6177.406 2299.107 6177.387 2299.14 C 6177.283 2299.32 6177.11 2299.437 6176.87 2299.493 C 6176.63 2299.549 6176.393 2299.541 6176.163 2299.458 C 6175.933 2299.375 6175.731 2299.237 6175.565 2299.035 C 6175.565 2299.035 6175.243 2299.326 6175.243 2299.326 C 6175.604 2299.758 6176.047 2299.975 6176.572 2299.975 C 6176.704 2299.975 6176.835 2299.959 6176.965 2299.927 C 6177.321 2299.839 6177.583 2299.656 6177.749 2299.371 C 6177.81 2299.264 6177.853 2299.153 6177.875 2299.041 C 6177.878 2299.025 6177.88 2299.009 6177.882 2298.992 C 6177.893 2298.925 6177.897 2298.858 6177.894 2298.789 C 6177.894 2298.789 6177.891 2298.789 6177.891 2298.789 C 6177.888 2298.709 6177.876 2298.627 6177.856 2298.543 C 6177.856 2298.543 6177.856 2298.543 6177.856 2298.543 Z  M 6182.149 2295.831 L 6182.149 2296.28 L 6180.813 2296.28 L 6180.813 2299.854 L 6180.389 2299.854 L 6180.389 2296.28 L 6179.053 2296.28 L 6179.053 2295.831 L 6182.149 2295.831 Z  M 6185.594 2295.831 L 6187.242 2299.854 L 6186.778 2299.854 L 6186.394 2298.914 L 6184.377 2298.914 L 6183.991 2299.854 L 6183.525 2299.854 L 6185.187 2295.831 L 6185.594 2295.831 Z  M 6184.563 2298.468 L 6186.213 2298.468 L 6185.389 2296.46 L 6184.563 2298.468 Z  M 6188.923 2297.734 Q 6189.725 2297.734 6189.725 2297.734 C 6189.944 2297.734 6190.131 2297.663 6190.285 2297.521 C 6190.439 2297.379 6190.518 2297.205 6190.518 2297.004 C 6190.518 2296.803 6190.44 2296.632 6190.285 2296.49 C 6190.13 2296.348 6189.944 2296.277 6189.725 2296.277 Q 6189.725 2296.277 6188.923 2296.277 L 6188.923 2297.734 Z  M 6189.423 2298.18 L 6188.923 2298.18 L 6188.923 2299.854 L 6188.499 2299.854 L 6188.499 2295.831 Q 6189.725 2295.831 6189.725 2295.831 C 6190.062 2295.831 6190.348 2295.946 6190.585 2296.174 C 6190.822 2296.402 6190.942 2296.682 6190.942 2297.004 C 6190.942 2297.326 6190.845 2297.547 6190.652 2297.766 C 6190.459 2297.985 6190.218 2298.116 6189.928 2298.162 Q 6189.928 2298.162 6191.056 2299.854 L 6190.528 2299.854 L 6189.423 2298.18 Z  M 6195.154 2295.831 L 6195.154 2296.28 L 6193.818 2296.28 L 6193.818 2299.854 L 6193.394 2299.854 L 6193.394 2296.28 L 6192.058 2296.28 L 6192.058 2295.831 L 6195.154 2295.831 Z  M 6198.802 2298.543 C 6198.735 2298.273 6198.584 2298.044 6198.349 2297.857 C 6198.257 2297.783 6198.145 2297.71 6198.014 2297.638 C 6197.961 2297.61 6197.902 2297.58 6197.837 2297.548 Q 6197.837 2297.548 6197.749 2297.506 L 6197.661 2297.463 Q 6197.516 2297.393 6197.516 2297.393 C 6197.138 2297.209 6196.906 2297.026 6196.82 2296.844 C 6196.789 2296.779 6196.776 2296.713 6196.782 2296.648 C 6196.785 2296.625 6196.791 2296.601 6196.799 2296.576 Q 6196.799 2296.576 6196.809 2296.548 Q 6196.818 2296.523 6196.818 2296.523 C 6196.861 2296.414 6196.93 2296.33 6197.025 2296.27 C 6197.12 2296.21 6197.183 2296.191 6197.28 2296.174 C 6197.436 2296.147 6197.594 2296.159 6197.756 2296.212 C 6197.918 2296.265 6198.048 2296.347 6198.142 2296.458 C 6198.142 2296.458 6198.459 2296.159 6198.459 2296.159 C 6198.314 2295.992 6198.127 2295.869 6197.897 2295.791 C 6197.667 2295.713 6197.439 2295.694 6197.209 2295.736 C 6196.827 2295.806 6196.566 2296.006 6196.427 2296.347 C 6196.198 2296.908 6196.504 2297.392 6197.337 2297.796 C 6197.404 2297.83 6197.453 2297.854 6197.485 2297.869 C 6197.764 2298 6197.957 2298.107 6198.064 2298.187 C 6198.238 2298.317 6198.346 2298.474 6198.392 2298.656 C 6198.427 2298.793 6198.421 2298.921 6198.378 2299.041 C 6198.367 2299.073 6198.352 2299.107 6198.333 2299.14 C 6198.229 2299.32 6198.056 2299.437 6197.816 2299.493 C 6197.576 2299.549 6197.339 2299.541 6197.109 2299.458 C 6196.879 2299.375 6196.678 2299.237 6196.511 2299.035 C 6196.511 2299.035 6196.189 2299.326 6196.189 2299.326 C 6196.55 2299.758 6196.993 2299.975 6197.518 2299.975 C 6197.65 2299.975 6197.781 2299.959 6197.911 2299.927 C 6198.267 2299.839 6198.53 2299.656 6198.695 2299.371 C 6198.757 2299.264 6198.799 2299.153 6198.821 2299.041 C 6198.824 2299.025 6198.826 2299.009 6198.828 2298.992 C 6198.839 2298.925 6198.843 2298.858 6198.84 2298.789 C 6198.84 2298.789 6198.838 2298.789 6198.838 2298.789 C 6198.834 2298.709 6198.822 2298.627 6198.802 2298.543 C 6198.802 2298.543 6198.802 2298.543 6198.802 2298.543 Z  M 6205.197 2295.831 L 6205.197 2299.854 L 6204.773 2299.854 L 6204.773 2297.872 L 6202.437 2297.872 L 6202.437 2299.854 L 6202.013 2299.854 L 6202.013 2295.831 L 6202.437 2295.831 L 6202.437 2297.425 L 6204.773 2297.425 L 6204.773 2295.831 L 6205.197 2295.831 Z  M 6209.452 2295.831 L 6209.452 2296.28 L 6207.348 2296.28 L 6207.348 2297.368 L 6209.071 2297.368 L 6209.071 2297.816 L 6207.348 2297.816 L 6207.348 2299.408 L 6209.504 2299.408 L 6209.504 2299.854 L 6206.923 2299.854 L 6206.923 2295.831 L 6209.452 2295.831 Z  M 6211.305 2297.734 Q 6212.107 2297.734 6212.107 2297.734 C 6212.326 2297.734 6212.513 2297.663 6212.666 2297.521 C 6212.819 2297.379 6212.9 2297.205 6212.9 2297.004 C 6212.9 2296.803 6212.822 2296.632 6212.666 2296.49 C 6212.51 2296.348 6212.326 2296.277 6212.107 2296.277 Q 6212.107 2296.277 6211.305 2296.277 L 6211.305 2297.734 Z  M 6211.805 2298.18 L 6211.305 2298.18 L 6211.305 2299.854 L 6210.88 2299.854 L 6210.88 2295.831 Q 6212.107 2295.831 6212.107 2295.831 C 6212.443 2295.831 6212.731 2295.946 6212.966 2296.174 C 6213.201 2296.402 6213.323 2296.682 6213.323 2297.004 C 6213.323 2297.326 6213.228 2297.547 6213.033 2297.766 C 6212.838 2297.985 6212.6 2298.116 6212.31 2298.162 Q 6212.31 2298.162 6213.439 2299.854 L 6212.909 2299.854 L 6211.805 2298.18 Z  M 6217.359 2295.831 L 6217.359 2296.28 L 6215.254 2296.28 L 6215.254 2297.368 L 6216.979 2297.368 L 6216.979 2297.816 L 6215.254 2297.816 L 6215.254 2299.408 L 6217.412 2299.408 L 6217.412 2299.854 L 6214.83 2299.854 L 6214.83 2295.831 L 6217.359 2295.831 Z " fill-rule="evenodd" fill="rgb(209,149,55)"/><path d=" M 6219.007 2295.833 L 6219.007 2295.955 L 6218.576 2295.955 L 6218.576 2296.927 L 6218.438 2296.927 L 6218.438 2295.955 L 6218.007 2295.955 L 6218.007 2295.833 L 6219.007 2295.833 Z  M 6220.286 2295.832 L 6220.286 2296.927 L 6220.17 2296.927 L 6220.17 2296.022 L 6219.746 2296.676 L 6219.323 2296.022 L 6219.323 2296.927 L 6219.206 2296.927 L 6219.206 2295.832 L 6219.338 2295.832 L 6219.746 2296.46 L 6220.154 2295.832 L 6220.286 2295.832 Z " fill-rule="evenodd" fill="rgb(209,149,55)"/></g></g></svg>