<svg width="17" height="18" xmlns="http://www.w3.org/2000/svg">
  <path d="M16.882 17.246l-5.318-5.836a6.724 6.724 0 0 0 1.857-4.66 6.723 6.723 0 0 0-1.966-4.773A6.65 6.65 0 0 0 6.71 0a6.644 6.644 0 0 0-4.744 1.977A6.729 6.729 0 0 0 0 6.75c0 1.803.698 3.498 1.966 4.773A6.65 6.65 0 0 0 6.71 13.5a6.634 6.634 0 0 0 4.195-1.48l5.317 5.834a.444.444 0 0 0 .633.028.452.452 0 0 0 .028-.635l-.001-.001zM.894 6.75C.894 3.524 3.503.9 6.71.9c3.206 0 5.815 2.624 5.815 5.85 0 3.226-2.609 5.85-5.815 5.85C3.503 12.6.894 9.976.894 6.75z" fill="#DFB676" fill-rule="evenodd"/>
</svg>