<?xml version="1.0" standalone="no"?><!-- Generator: Gravit.io --><svg xmlns="http://www.w3.org/2000/svg" xmlns:xlink="http://www.w3.org/1999/xlink" style="isolation:isolate" viewBox="7945.051 2648 29.949 28" width="29.949" height="28"><g id="Page 1"><path d=" M 7973.998 2654.232 C 7973.998 2654.224 7973.997 2654.22 7973.995 2654.212 C 7973.994 2654.198 7973.991 2654.184 7973.989 2654.168 C 7973.987 2654.161 7973.986 2654.156 7973.984 2654.148 C 7973.979 2654.128 7973.976 2654.111 7973.97 2654.092 C 7973.967 2654.086 7973.965 2654.078 7973.962 2654.072 C 7973.959 2654.06 7973.954 2654.047 7973.948 2654.036 C 7973.946 2654.028 7973.943 2654.021 7973.938 2654.014 C 7973.934 2654.002 7973.927 2653.988 7973.921 2653.977 C 7973.918 2653.972 7973.915 2653.966 7973.912 2653.96 C 7973.902 2653.944 7973.891 2653.927 7973.882 2653.912 C 7973.878 2653.906 7973.875 2653.902 7973.871 2653.896 C 7973.863 2653.884 7973.853 2653.873 7973.844 2653.862 C 7973.839 2653.857 7973.834 2653.851 7973.833 2653.848 C 7973.82 2653.832 7973.807 2653.82 7973.795 2653.806 C 7973.793 2653.804 7973.792 2653.804 7973.792 2653.803 C 7973.777 2653.789 7973.762 2653.775 7973.746 2653.762 C 7973.741 2653.758 7973.736 2653.755 7973.733 2653.752 C 7973.721 2653.742 7973.708 2653.734 7973.697 2653.725 C 7973.692 2653.72 7973.686 2653.717 7973.679 2653.714 C 7973.667 2653.706 7973.654 2653.697 7973.64 2653.691 C 7973.635 2653.688 7973.631 2653.685 7973.626 2653.682 C 7973.61 2653.674 7973.594 2653.666 7973.578 2653.66 C 7973.578 2653.66 7973.569 2653.655 7973.569 2653.655 C 7973.567 2653.655 7973.567 2653.654 7973.566 2653.654 C 7973.566 2653.654 7960.789 2648.06 7960.789 2648.06 C 7960.606 2647.98 7960.396 2647.98 7960.213 2648.06 C 7960.213 2648.06 7947.436 2653.654 7947.436 2653.654 C 7947.434 2653.654 7947.434 2653.655 7947.433 2653.655 C 7947.433 2653.655 7947.423 2653.66 7947.423 2653.66 C 7947.407 2653.666 7947.392 2653.675 7947.376 2653.682 C 7947.371 2653.685 7947.366 2653.688 7947.362 2653.691 C 7947.347 2653.697 7947.335 2653.706 7947.322 2653.714 C 7947.316 2653.719 7947.311 2653.72 7947.305 2653.725 C 7947.298 2653.73 7947.281 2653.744 7947.268 2653.752 C 7947.264 2653.755 7947.259 2653.759 7947.256 2653.762 C 7947.24 2653.775 7947.224 2653.789 7947.21 2653.803 C 7947.196 2653.817 7947.207 2653.804 7947.205 2653.806 C 7947.204 2653.808 7947.18 2653.832 7947.169 2653.848 C 7947.164 2653.851 7947.159 2653.857 7947.158 2653.862 C 7947.147 2653.873 7947.139 2653.885 7947.129 2653.896 C 7947.126 2653.902 7947.123 2653.906 7947.118 2653.912 C 7947.107 2653.927 7947.098 2653.944 7947.088 2653.96 C 7947.087 2653.966 7947.084 2653.972 7947.081 2653.977 C 7947.074 2653.99 7947.068 2654.002 7947.062 2654.016 C 7947.058 2654.022 7947.055 2654.03 7947.052 2654.038 C 7947.046 2654.05 7947.043 2654.063 7947.038 2654.075 C 7947.035 2654.083 7947.033 2654.089 7947.03 2654.095 C 7947.025 2654.114 7947.021 2654.133 7947.016 2654.151 C 7947.016 2654.158 7947.014 2654.164 7947.013 2654.17 C 7947.009 2654.186 7947.006 2654.2 7947.005 2654.215 C 7947.003 2654.223 7947.003 2654.228 7947.002 2654.235 C 7947.002 2654.256 7947 2654.277 7947 2654.298 C 7947 2654.298 7947 2669.698 7947 2669.698 C 7947 2669.977 7947.164 2670.227 7947.422 2670.339 C 7947.422 2670.339 7960.211 2675.939 7960.211 2675.939 C 7960.213 2675.939 7960.214 2675.941 7960.216 2675.941 C 7960.233 2675.949 7960.252 2675.956 7960.273 2675.961 C 7960.276 2675.963 7960.279 2675.964 7960.284 2675.966 C 7960.304 2675.972 7960.328 2675.978 7960.35 2675.984 C 7960.352 2675.984 7960.353 2675.984 7960.353 2675.984 C 7960.401 2675.995 7960.449 2676 7960.5 2676 C 7960.551 2676 7960.599 2675.995 7960.645 2675.984 C 7960.647 2675.984 7960.648 2675.984 7960.648 2675.984 C 7960.672 2675.98 7960.694 2675.972 7960.716 2675.966 C 7960.719 2675.964 7960.723 2675.963 7960.727 2675.961 C 7960.732 2675.96 7960.765 2675.947 7960.784 2675.941 C 7960.786 2675.941 7960.787 2675.939 7960.787 2675.939 C 7960.787 2675.939 7973.578 2670.339 7973.578 2670.339 C 7973.834 2670.227 7974 2669.977 7974 2669.698 C 7974 2669.698 7974 2654.298 7974 2654.298 C 7974 2654.277 7973.998 2654.256 7973.997 2654.235 C 7973.997 2654.235 7973.998 2654.232 7973.998 2654.232 Z  M 7960.502 2649.461 L 7971.542 2654.294 L 7960.502 2659.129 L 7949.462 2654.294 L 7960.502 2649.461 Z  M 7948.423 2655.372 L 7959.791 2660.35 L 7959.791 2674.22 L 7948.423 2669.241 L 7948.423 2655.372 Z  M 7961.212 2674.22 L 7961.212 2660.35 L 7972.581 2655.372 L 7972.581 2669.241 L 7961.212 2674.22 Z " fill-rule="evenodd" fill="rgb(255,255,255)"/><path d=" M 7945.789 2675 C 7945.575 2675 7945.36 2674.913 7945.204 2674.742 C 7945.047 2674.572 7944.937 2673.928 7945.26 2673.639 C 7945.26 2673.639 7973.682 2648.201 7973.682 2648.201 C 7974.004 2647.914 7974.504 2647.936 7974.796 2648.258 C 7975.089 2648.579 7975.063 2649.07 7974.74 2649.361 C 7974.74 2649.361 7946.318 2674.798 7946.318 2674.798 C 7946.168 2674.933 7945.979 2675 7945.789 2675" fill-rule="evenodd" fill="rgb(255,255,255)"/></g></svg>