<svg width="32" height="48" xmlns="http://www.w3.org/2000/svg" xmlns:xlink="http://www.w3.org/1999/xlink"><g transform="translate(-4186 -277)"><mask id="a"><path fill-rule="evenodd" d="M32 24v24H0V0h32v24z" transform="translate(4186 277)" fill="#FFF"></path></mask>
        <g mask="url(#a)"><path fill-rule="evenodd" d="M32 28.801a4.803 4.803 0 0 0-3.174-4.529 4.815 4.815 0 0 0 .804-2.671c0-2.647-2.127-4.8-4.741-4.8h-7.111v-12C17.778 2.152 15.65 0 13.037 0s-4.74 2.153-4.74 4.8v12c-.294 0-2.905.044-4.395 1.552-1.174 1.187-2.05 2.618-2.682 4.375C.41 24.978 0 27.829 0 31.2c0 2.907.422 6.145 1.187 9.116.442 1.709 1.378 4.779 2.715 6.132C5.39 47.957 8.002 48 8.296 48H22.52c2.614 0 4.74-2.153 4.74-4.8 0-.989-.297-1.907-.803-2.671a4.805 4.805 0 0 0 3.174-4.53c0-.988-.297-1.906-.804-2.67A4.805 4.805 0 0 0 32 28.798v.002zm-21.334-24c0-1.323 1.065-2.4 2.37-2.4 1.307 0 2.371 1.077 2.371 2.4v12h-4.74v-12zM27.26 31.2H16.593c-.655 0-1.185.538-1.185 1.2 0 .663.53 1.2 1.185 1.2h8.296c1.306 0 2.37 1.078 2.37 2.4 0 1.323-1.064 2.4-2.37 2.4h-9.481c-.655 0-1.186.538-1.186 1.2 0 .664.53 1.201 1.186 1.201h7.11c1.306 0 2.37 1.078 2.37 2.4 0 1.322-1.064 2.4-2.37 2.4H8.299c-.49-.002-2.045-.165-2.72-.847-1.292-1.308-3.21-7.575-3.21-13.554 0-7.903 2.416-10.349 3.21-11.15.675-.684 2.227-.845 2.72-.85h16.59c1.307 0 2.371 1.078 2.371 2.4 0 1.322-1.064 2.4-2.37 2.4h-8.296c-.655 0-1.185.537-1.185 1.2 0 .663.53 1.2 1.185 1.2h10.666c1.306 0 2.37 1.078 2.37 2.4 0 1.323-1.064 2.4-2.37 2.4z" transform="translate(4186 277)" fill="#9C6B1F"></path></g>
    </g></svg>