<svg width="47" height="49" viewBox="0 0 47 49" version="1.1" xmlns="http://www.w3.org/2000/svg" xmlns:xlink="http://www.w3.org/1999/xlink">
    <title>Page 1</title>
    <desc>Created using Figma</desc>
    <g id="Canvas" transform="translate(-2436 -276)">
        <g id="Page 1">
            <g id="Group 3">
                <mask id="mask0_outline" mask-type="alpha">
                    <g id="Clip 2">
                        <path fill-rule="evenodd" d="M 0 48.4302L 46.2835 48.4302L 46.2835 0L 0 0L 0 48.4302Z" transform="translate(2436 276.57)" fill="#FFFFFF"></path>
                    </g>
                </mask>
                <g id="Fill 1" mask="url(#mask0_outline)">
                    <path fill-rule="evenodd" d="M 43.8476 44.7985C 43.8476 45.4663 43.302 46.0087 42.6302 46.0087L 3.65345 46.0087C 2.98169 46.0087 2.43604 45.4663 2.43604 44.7985L 2.43604 23.0027C 3.45399 23.765 4.72069 24.2163 6.08943 24.2163L 42.6302 24.2163C 43.302 24.2163 43.8476 24.7587 43.8476 25.4264L 43.8476 44.7985ZM 4.87201 14.7376L 4.87201 18.1619C 4.87201 18.8297 5.41767 19.3732 6.08943 19.3732L 35.3223 19.3732C 35.994 19.3732 36.5397 18.8297 36.5397 18.1619C 36.5397 17.4941 35.994 16.9517 35.3223 16.9517L 31.6677 16.9517L 31.6677 14.5302L 37.7583 14.5302C 38.43 14.5302 38.9757 15.0726 38.9757 15.7404L 38.9757 21.7947L 6.08943 21.7947C 4.0753 21.7947 2.43604 20.1641 2.43604 18.1619C 2.43604 16.5837 3.45399 15.2367 4.87201 14.7376ZM 7.30786 16.9506L 29.2316 16.9506L 29.2316 2.42151L 7.30786 2.42151L 7.30786 16.9506ZM 42.6301 21.7947L 41.4116 21.7947L 41.4116 15.7404C 41.4116 13.7382 39.7723 12.1087 37.7582 12.1087L 31.6677 12.1087L 31.6677 1.21133C 31.6677 0.543558 31.122 0 30.4491 0L 6.08937 0C 5.41761 0 4.87195 0.543558 4.87195 1.21133L 4.87195 12.2295C 2.09551 12.7913 0 15.2367 0 18.1619L 0 44.7985C 0 46.8007 1.63927 48.4314 3.65339 48.4314L 42.6301 48.4314C 44.6443 48.4314 46.2835 46.8007 46.2835 44.7985L 46.2835 25.4264C 46.2835 23.4243 44.6443 21.7947 42.6301 21.7947Z" transform="translate(2436 276.569)" fill="#9C6B1F"></path>
                </g>
            </g>
            <g id="Fill 4">
                <path fill-rule="evenodd" d="M 15.7863 2.33333L 14.5726 2.33333L 14.5726 1.16722C 14.5726 0.522667 14.0274 0 13.3577 0L 8.50057 0C 7.83086 0 7.28686 0.522667 7.28686 1.16722L 7.28686 4.66667L 4.85714 4.66667L 4.85714 1.16722C 4.85714 0.522667 4.31314 0 3.64343 0C 2.97371 0 2.42857 0.522667 2.42857 1.16722L 2.42857 2.33333L 1.21486 2.33333C 0.545143 2.33333 0 2.856 0 3.49945C 0 4.144 0.545143 4.66667 1.21486 4.66667L 2.42857 4.66667L 2.42857 5.83388C 2.42857 6.47733 2.97371 7 3.64343 7L 8.50057 7C 9.17029 7 9.71543 6.47733 9.71543 5.83388L 9.71543 2.33333L 12.1429 2.33333L 12.1429 5.83388C 12.1429 6.47733 12.688 7 13.3577 7C 14.0274 7 14.5726 6.47733 14.5726 5.83388L 14.5726 4.66667L 15.7863 4.66667C 16.456 4.66667 17 4.144 17 3.49945C 17 2.856 16.456 2.33333 15.7863 2.33333Z" transform="translate(2446 282)" fill="#9C6B1F"></path>
            </g>
            <g id="Fill 6">
                <path fill-rule="evenodd" d="M 10.8006 0L 1.20056 0C 0.538729 0 0 0.448 0 0.999529C 0 1.552 0.538729 2 1.20056 2L 10.8006 2C 11.4624 2 12 1.552 12 0.999529C 12 0.448 11.4624 0 10.8006 0Z" transform="translate(2465 317)" fill="#9C6B1F"></path>
            </g>
        </g>
    </g>
</svg>