<?xml version="1.0" standalone="no"?>
<!DOCTYPE svg PUBLIC "-//W3C//DTD SVG 20010904//EN"
 "http://www.w3.org/TR/2001/REC-SVG-20010904/DTD/svg10.dtd">
<svg version="1.0" xmlns="http://www.w3.org/2000/svg"
 width="140.000000pt" height="140.000000pt" viewBox="0 0 140.000000 140.000000"
 preserveAspectRatio="xMidYMid meet">
<metadata>
Created by potrace 1.11, written by Peter Selinger 2001-2013
</metadata>
<g transform="translate(0.000000,140.000000) scale(0.100000,-0.100000)"
fill="#000000" stroke="none">
<path d="M948 1315 c-29 -16 -40 -52 -13 -41 27 10 67 -36 67 -76 0 -69 -56
-115 -162 -133 -74 -12 -108 -31 -127 -69 -9 -20 -21 -36 -27 -36 -138 -7
-193 -12 -215 -23 -23 -11 -26 -18 -23 -60 3 -43 1 -47 -20 -47 -58 -1 -140
-59 -175 -125 -76 -141 31 -325 195 -334 6 -1 12 -14 12 -30 0 -15 12 -50 26
-77 136 -258 509 -235 610 37 13 36 17 94 20 309 2 146 5 276 6 290 5 46 -55
57 -321 59 -57 1 -62 3 -50 17 18 22 52 34 144 51 167 29 238 103 211 219 -15
66 -99 102 -158 69z m-497 -692 c1 -89 0 -125 -6 -131 -7 -7 -65 29 -79 50 -9
12 -16 40 -16 61 0 31 7 46 34 73 56 56 66 48 67 -53z"/>
<path d="M900 1218 c0 -22 -43 -51 -106 -72 -28 -9 -59 -22 -68 -29 -16 -12
-48 -88 -41 -96 2 -2 19 13 37 32 23 24 46 37 73 42 118 20 162 65 120 121
-12 16 -14 17 -15 2z"/>
</g>
</svg>
